<svg width="1100" height="250" viewBox="0 0 1100 250" fill="none" xmlns="http://www.w3.org/2000/svg">
<rect width="1100" height="250" rx="5" fill="#FFDFDF"/>
<path d="M502.76 119.2V117.54H506.52V132H504.68V119.2H502.76ZM509.166 119.2V117.54H512.926V132H511.086V119.2H509.166ZM516.053 124.62C516.053 122.327 516.426 120.54 517.173 119.26C517.919 117.967 519.226 117.32 521.093 117.32C522.946 117.32 524.246 117.967 524.993 119.26C525.739 120.54 526.112 122.327 526.112 124.62C526.112 126.953 525.739 128.767 524.993 130.06C524.246 131.353 522.946 132 521.093 132C519.226 132 517.919 131.353 517.173 130.06C516.426 128.767 516.053 126.953 516.053 124.62ZM524.313 124.62C524.313 123.46 524.233 122.48 524.073 121.68C523.926 120.867 523.613 120.213 523.133 119.72C522.666 119.227 521.986 118.98 521.093 118.98C520.186 118.98 519.493 119.227 519.013 119.72C518.546 120.213 518.233 120.867 518.073 121.68C517.926 122.48 517.853 123.46 517.853 124.62C517.853 125.82 517.926 126.827 518.073 127.64C518.233 128.453 518.546 129.107 519.013 129.6C519.493 130.093 520.186 130.34 521.093 130.34C521.986 130.34 522.666 130.093 523.133 129.6C523.613 129.107 523.926 128.453 524.073 127.64C524.233 126.827 524.313 125.82 524.313 124.62ZM528.611 124.62C528.611 122.327 528.984 120.54 529.731 119.26C530.478 117.967 531.784 117.32 533.651 117.32C535.504 117.32 536.804 117.967 537.551 119.26C538.298 120.54 538.671 122.327 538.671 124.62C538.671 126.953 538.298 128.767 537.551 130.06C536.804 131.353 535.504 132 533.651 132C531.784 132 530.478 131.353 529.731 130.06C528.984 128.767 528.611 126.953 528.611 124.62ZM536.871 124.62C536.871 123.46 536.791 122.48 536.631 121.68C536.484 120.867 536.171 120.213 535.691 119.72C535.224 119.227 534.544 118.98 533.651 118.98C532.744 118.98 532.051 119.227 531.571 119.72C531.104 120.213 530.791 120.867 530.631 121.68C530.484 122.48 530.411 123.46 530.411 124.62C530.411 125.82 530.484 126.827 530.631 127.64C530.791 128.453 531.104 129.107 531.571 129.6C532.051 130.093 532.744 130.34 533.651 130.34C534.544 130.34 535.224 130.093 535.691 129.6C536.171 129.107 536.484 128.453 536.631 127.64C536.791 126.827 536.871 125.82 536.871 124.62ZM552.522 132L549.922 127.92L547.422 132H545.522L549.062 126.56L545.522 121.04H547.582L550.182 125.1L552.662 121.04H554.562L551.042 126.46L554.582 132H552.522ZM561.184 130.54C562.877 129.18 564.204 128.067 565.164 127.2C566.124 126.32 566.931 125.407 567.584 124.46C568.251 123.5 568.584 122.56 568.584 121.64C568.584 120.773 568.371 120.093 567.944 119.6C567.531 119.093 566.857 118.84 565.924 118.84C565.017 118.84 564.311 119.127 563.804 119.7C563.311 120.26 563.044 121.013 563.004 121.96H561.244C561.297 120.467 561.751 119.313 562.604 118.5C563.457 117.687 564.557 117.28 565.904 117.28C567.277 117.28 568.364 117.66 569.164 118.42C569.977 119.18 570.384 120.227 570.384 121.56C570.384 122.667 570.051 123.747 569.384 124.8C568.731 125.84 567.984 126.76 567.144 127.56C566.304 128.347 565.231 129.267 563.924 130.32H570.804V131.84H561.184V130.54ZM582.128 119.12H575.108V123.68C575.415 123.253 575.868 122.907 576.468 122.64C577.068 122.36 577.715 122.22 578.408 122.22C579.515 122.22 580.415 122.453 581.108 122.92C581.801 123.373 582.295 123.967 582.588 124.7C582.895 125.42 583.048 126.187 583.048 127C583.048 127.96 582.868 128.82 582.508 129.58C582.148 130.34 581.595 130.94 580.848 131.38C580.115 131.82 579.201 132.04 578.108 132.04C576.708 132.04 575.575 131.68 574.708 130.96C573.841 130.24 573.315 129.28 573.128 128.08H574.908C575.081 128.84 575.448 129.433 576.008 129.86C576.568 130.287 577.275 130.5 578.128 130.5C579.181 130.5 579.975 130.187 580.508 129.56C581.041 128.92 581.308 128.08 581.308 127.04C581.308 126 581.041 125.2 580.508 124.64C579.975 124.067 579.188 123.78 578.148 123.78C577.441 123.78 576.821 123.953 576.288 124.3C575.768 124.633 575.388 125.093 575.148 125.68H573.428V117.52H582.128V119.12ZM585.467 124.62C585.467 122.327 585.84 120.54 586.587 119.26C587.333 117.967 588.64 117.32 590.507 117.32C592.36 117.32 593.66 117.967 594.407 119.26C595.153 120.54 595.527 122.327 595.527 124.62C595.527 126.953 595.153 128.767 594.407 130.06C593.66 131.353 592.36 132 590.507 132C588.64 132 587.333 131.353 586.587 130.06C585.84 128.767 585.467 126.953 585.467 124.62ZM593.727 124.62C593.727 123.46 593.647 122.48 593.487 121.68C593.34 120.867 593.027 120.213 592.547 119.72C592.08 119.227 591.4 118.98 590.507 118.98C589.6 118.98 588.907 119.227 588.427 119.72C587.96 120.213 587.647 120.867 587.487 121.68C587.34 122.48 587.267 123.46 587.267 124.62C587.267 125.82 587.34 126.827 587.487 127.64C587.647 128.453 587.96 129.107 588.427 129.6C588.907 130.093 589.6 130.34 590.507 130.34C591.4 130.34 592.08 130.093 592.547 129.6C593.027 129.107 593.34 128.453 593.487 127.64C593.647 126.827 593.727 125.82 593.727 124.62Z" fill="black"/>
</svg>
