<svg width="375" height="300" viewBox="0 0 375 300" fill="none" xmlns="http://www.w3.org/2000/svg">
<g clip-path="url(#clip0_9_138)">
<rect width="375" height="300" rx="5" fill="white"/>
<g clip-path="url(#clip1_9_138)">
<path d="M212.9 0L187.5 194.286L162.1 0H212.9Z" fill="#A6A6A6"/>
<path d="M187.5 194.286L40.895 0H109.035L187.5 194.286Z" fill="#A6A6A6"/>
<path d="M187.5 194.286L0 115.416V46.932L187.5 194.286Z" fill="#A6A6A6"/>
<path d="M187.5 194.286H0V168.762L187.5 194.286Z" fill="#A6A6A6"/>
<path d="M375 168.762V194.286H187.5L375 168.762Z" fill="#A6A6A6"/>
<path d="M375 46.932V115.416L187.5 194.286L375 46.932Z" fill="#A6A6A6"/>
<path d="M334.105 0L187.5 194.286L265.965 0H334.105Z" fill="#A6A6A6"/>
<g opacity="0.9">
<path d="M212.9 0L187.5 194.286L162.1 0H212.9Z" fill="white"/>
<path d="M187.5 194.286L40.895 0H109.035L187.5 194.286Z" fill="white"/>
<path d="M187.5 194.286L0 115.416V46.932L187.5 194.286Z" fill="white"/>
<path d="M187.5 194.286H0V168.762L187.5 194.286Z" fill="white"/>
<path d="M375 168.762V194.286H187.5L375 168.762Z" fill="white"/>
<path d="M375 46.932V115.416L187.5 194.286L375 46.932Z" fill="white"/>
<path d="M334.105 0L187.5 194.286L265.965 0H334.105Z" fill="white"/>
</g>
<path d="M75.45 60.156L74.98 61.302L73.92 61.488L74.685 62.382L74.505 63.642L75.45 63.048L76.395 63.642L76.215 62.382L76.98 61.488L75.925 61.302L75.45 60.156Z" fill="#DBDBDB"/>
<path d="M124.24 23.76L123.765 24.906L122.71 25.092L123.475 25.986L123.295 27.246L124.24 26.652L125.185 27.246L125.005 25.986L125.765 25.092L124.71 24.906L124.24 23.76Z" fill="#DBDBDB"/>
<path d="M97.2 114.564L96.725 115.71L95.67 115.896L96.435 116.79L96.255 118.05L97.2 117.456L98.145 118.05L97.965 116.79L98.73 115.896L97.67 115.71L97.2 114.564Z" fill="#DBDBDB"/>
<path d="M14.75 58.41L14.28 59.556L13.225 59.742L13.99 60.636L13.805 61.896L14.75 61.302L15.695 61.896L15.515 60.636L16.28 59.742L15.225 59.556L14.75 58.41Z" fill="#DBDBDB"/>
<path d="M24.29 91.266L23.82 92.412L22.765 92.598L23.525 93.492L23.345 94.752L24.29 94.158L25.235 94.752L25.055 93.492L25.82 92.598L24.765 92.412L24.29 91.266Z" fill="#DBDBDB"/>
<path d="M163.71 88.44L163.235 89.592L162.18 89.778L162.945 90.672L162.765 91.932L163.71 91.338L164.655 91.932L164.475 90.672L165.235 89.778L164.18 89.592L163.71 88.44Z" fill="#DBDBDB"/>
<path d="M275.665 14.406L275.19 15.558L274.135 15.738L274.9 16.632L274.72 17.898L275.665 17.304L276.61 17.898L276.43 16.632L277.19 15.738L276.135 15.558L275.665 14.406Z" fill="#DBDBDB"/>
<path d="M36.27 33.996L35.8 35.142L34.74 35.328L35.505 36.222L35.325 37.482L36.27 36.888L37.215 37.482L37.035 36.222L37.8 35.328L36.745 35.142L36.27 33.996Z" fill="#DBDBDB"/>
<path d="M234.855 43.104L234.385 44.25L233.325 44.436L234.09 45.33L233.91 46.59L234.855 45.996L235.8 46.59L235.62 45.33L236.385 44.436L235.325 44.25L234.855 43.104Z" fill="#DBDBDB"/>
<path d="M160.095 46.59L159.62 47.742L158.565 47.922L159.33 48.816L159.15 50.082L160.095 49.482L161.04 50.082L160.855 48.816L161.62 47.922L160.565 47.742L160.095 46.59Z" fill="#DBDBDB"/>
<path d="M269.705 103.128L269.235 104.274L268.175 104.46L268.94 105.354L268.76 106.614L269.705 106.02L270.65 106.614L270.47 105.354L271.235 104.46L270.18 104.274L269.705 103.128Z" fill="#DBDBDB"/>
<path d="M351.94 25.506L351.465 26.652L350.41 26.838L351.175 27.732L350.995 28.992L351.94 28.398L352.885 28.992L352.705 27.732L353.465 26.838L352.41 26.652L351.94 25.506Z" fill="#DBDBDB"/>
<path d="M303.655 28.08L303.365 28.788L302.71 28.902L303.185 29.454L303.07 30.234L303.655 29.868L304.24 30.234L304.125 29.454L304.6 28.902L303.945 28.788L303.655 28.08Z" fill="#DBDBDB"/>
<path d="M229.725 49.254L229.435 49.968L228.78 50.082L229.255 50.634L229.145 51.414L229.725 51.042L230.31 51.414L230.2 50.634L230.67 50.082L230.02 49.968L229.725 49.254Z" fill="#DBDBDB"/>
<path d="M137.47 35.736L137.18 36.444L136.53 36.564L137 37.116L136.89 37.896L137.47 37.524L138.055 37.896L137.945 37.116L138.415 36.564L137.765 36.444L137.47 35.736Z" fill="#DBDBDB"/>
<path d="M219.675 97.146L219.385 97.854L218.73 97.968L219.2 98.52L219.09 99.3L219.675 98.928L220.26 99.3L220.15 98.52L220.62 97.968L219.965 97.854L219.675 97.146Z" fill="#DBDBDB"/>
<path d="M292.2 74.25L291.91 74.958L291.26 75.072L291.73 75.624L291.62 76.404L292.2 76.032L292.785 76.404L292.675 75.624L293.145 75.072L292.495 74.958L292.2 74.25Z" fill="#DBDBDB"/>
<path d="M351.94 136.566L351.645 137.274L350.995 137.388L351.465 137.94L351.355 138.72L351.94 138.354L352.52 138.72L352.41 137.94L352.885 137.388L352.23 137.274L351.94 136.566Z" fill="#DBDBDB"/>
<path d="M54.975 82.542L54.685 83.25L54.03 83.364L54.505 83.916L54.395 84.696L54.975 84.33L55.56 84.696L55.45 83.916L55.92 83.364L55.27 83.25L54.975 82.542Z" fill="#DBDBDB"/>
<path d="M107.425 122.256L107.135 122.964L106.48 123.078L106.955 123.63L106.845 124.41L107.425 124.044L108.01 124.41L107.9 123.63L108.37 123.078L107.72 122.964L107.425 122.256Z" fill="#DBDBDB"/>
<path d="M166.145 102.048L165.855 102.756L165.2 102.87L165.675 103.422L165.56 104.202L166.145 103.836L166.73 104.202L166.62 103.422L167.09 102.87L166.44 102.756L166.145 102.048Z" fill="#DBDBDB"/>
<path d="M213.795 75.324L213.505 76.032L212.85 76.152L213.325 76.704L213.21 77.484L213.795 77.112L214.38 77.484L214.27 76.704L214.74 76.152L214.09 76.032L213.795 75.324Z" fill="#DBDBDB"/>
<path d="M300.62 72.036L300.325 72.75L299.675 72.864L300.145 73.416L300.035 74.196L300.62 73.824L301.205 74.196L301.09 73.416L301.565 72.864L300.91 72.75L300.62 72.036Z" fill="#DBDBDB"/>
<path d="M340.84 62.622L340.55 63.33L339.895 63.444L340.37 63.996L340.255 64.776L340.84 64.41L341.425 64.776L341.315 63.996L341.785 63.444L341.135 63.33L340.84 62.622Z" fill="#DBDBDB"/>
<path d="M38.695 22.68L38.405 23.394L37.75 23.502L38.22 24.06L38.11 24.84L38.695 24.468L39.28 24.84L39.165 24.06L39.64 23.502L38.985 23.394L38.695 22.68Z" fill="#DBDBDB"/>
<path d="M360.54 34.662L360.25 35.37L359.6 35.484L360.07 36.036L359.96 36.816L360.54 36.444L361.125 36.816L361.015 36.036L361.485 35.484L360.835 35.37L360.54 34.662Z" fill="#DBDBDB"/>
<path d="M125.79 109.356H51.29C51.29 109.356 67.94 96.894 81.055 96.894C94.17 96.894 98.055 105.204 98.055 105.204C98.055 105.204 107.31 101.328 115.885 102.018C124.46 102.708 125.79 109.356 125.79 109.356Z" fill="#DBDBDB"/>
<path d="M201.91 136.572H127.41C127.41 136.572 144.06 124.11 157.175 124.11C170.29 124.11 174.175 132.42 174.175 132.42C174.175 132.42 183.43 128.544 192.005 129.234C200.58 129.924 201.91 136.572 201.91 136.572Z" fill="#DBDBDB"/>
<path d="M334.14 132.87H259.64C259.64 132.87 276.29 120.408 289.405 120.408C302.52 120.408 306.405 128.718 306.405 128.718C306.405 128.718 315.66 124.842 324.235 125.532C332.81 126.222 334.14 132.87 334.14 132.87Z" fill="#DBDBDB"/>
<path d="M170.39 167.166H25.28C25.28 167.166 45.155 144.252 66.41 142.8C87.665 141.348 97.835 159.828 97.835 159.828C97.835 159.828 111.545 153.306 122.335 153.306C133.125 153.306 141.435 161.898 141.435 161.898C141.435 161.898 163 156.03 170.39 167.166Z" fill="#DBDBDB"/>
<path d="M348.36 158.304H189.155C189.155 158.304 210.955 140.208 234.28 139.104C257.605 138 268.755 152.55 268.755 152.55C268.755 152.55 283.8 147.396 295.63 147.396C302.979 147.512 310.185 149.846 316.585 154.182C316.585 154.182 340.25 149.508 348.36 158.304Z" fill="#DBDBDB"/>
<path d="M304.6 59.526C305.906 62.264 307.761 64.5681 309.995 66.2298C312.23 67.8915 314.775 68.8583 317.4 69.0429C320.024 69.2275 322.646 68.624 325.027 67.287C327.409 65.95 329.475 63.9216 331.038 61.3855C332.602 58.8493 333.614 55.8853 333.984 52.7616C334.353 49.6379 334.067 46.453 333.152 43.4952C332.238 40.5373 330.723 37.8998 328.745 35.8211C326.767 33.7424 324.389 32.2882 321.825 31.59C323.821 32.6939 325.587 34.3178 326.995 36.3436C328.402 38.3694 329.416 40.7462 329.961 43.301C330.507 45.8559 330.572 48.5246 330.15 51.1131C329.728 53.7016 328.831 56.1449 327.524 58.2651C326.217 60.3853 324.532 62.1292 322.593 63.37C320.653 64.6108 318.508 65.3173 316.312 65.4381C314.116 65.5588 311.926 65.0908 309.9 64.0682C307.874 63.0455 306.063 61.4938 304.6 59.526V59.526Z" fill="#3C7DC9"/>
<path d="M231.08 223.938C231.08 224.448 231.08 224.964 231.08 225.474H143.94C143.94 224.964 143.94 224.448 143.94 223.938C143.94 210.068 148.531 196.767 156.704 186.959C164.877 177.152 175.962 171.642 187.52 171.642C199.078 171.642 210.163 177.152 218.336 186.959C226.508 196.767 231.1 210.068 231.1 223.938H231.08Z" fill="#3C7DC9"/>
<path d="M160.095 194.232L158.005 194.694L157.54 197.334L157.07 194.694L154.985 194.226L157.065 193.62L157.54 191.124L158.015 193.62L160.095 194.232Z" fill="white"/>
<path d="M213.795 187.818L211.71 188.28L211.24 190.92L210.775 188.28L208.69 187.812L210.765 187.206L211.24 184.71L211.715 187.206L213.795 187.818Z" fill="white"/>
<path d="M153.965 182.088C153.908 182.088 153.853 182.115 153.813 182.164C153.773 182.212 153.75 182.278 153.75 182.346C153.75 182.414 153.773 182.48 153.813 182.528C153.853 182.577 153.908 182.604 153.965 182.604C154.022 182.604 154.077 182.577 154.117 182.528C154.157 182.48 154.18 182.414 154.18 182.346C154.18 182.278 154.157 182.212 154.117 182.164C154.077 182.115 154.022 182.088 153.965 182.088Z" fill="white"/>
<path d="M194.68 200.466C194.628 200.475 194.58 200.507 194.546 200.555C194.512 200.603 194.493 200.664 194.493 200.727C194.493 200.79 194.512 200.851 194.546 200.899C194.58 200.947 194.628 200.979 194.68 200.988C194.732 200.979 194.779 200.947 194.814 200.899C194.848 200.851 194.867 200.79 194.867 200.727C194.867 200.664 194.848 200.603 194.814 200.555C194.779 200.507 194.732 200.475 194.68 200.466Z" fill="white"/>
<path d="M177.505 176.922L176.18 177.216L175.88 178.89L175.585 177.216L174.255 176.916L175.58 176.532L175.88 174.942L176.185 176.532L177.505 176.922Z" fill="white"/>
<path d="M186.15 190.122C186.048 190.135 185.954 190.193 185.886 190.285C185.818 190.376 185.78 190.494 185.78 190.617C185.78 190.74 185.818 190.858 185.886 190.949C185.954 191.041 186.048 191.099 186.15 191.112C186.251 191.099 186.345 191.041 186.414 190.949C186.482 190.858 186.519 190.74 186.519 190.617C186.519 190.494 186.482 190.376 186.414 190.285C186.345 190.193 186.251 190.135 186.15 190.122V190.122Z" fill="white"/>
<path d="M166.145 199.044L165.405 199.206L165.24 200.148L165.07 199.206L164.33 199.044L165.07 198.828L165.24 197.94L165.405 198.828L166.145 199.044Z" fill="white"/>
<path d="M201.11 198.126L200.37 198.294L200.205 199.23L200.035 198.294L199.295 198.126L200.035 197.91L200.205 197.022L200.375 197.91L201.11 198.126Z" fill="white"/>
<g opacity="0.3">
<path d="M116.13 225.474C116.13 225.474 173.945 227.4 173.81 230.778C173.735 232.704 127.92 233.748 127.92 236.778C127.92 238.536 177.325 239.178 177.325 241.122C177.325 242.322 156.49 243.774 156.49 245.022C156.49 246.912 187.145 247.794 187.345 248.76C187.545 249.726 150.32 249.96 150.32 252.864C150.32 255.354 183.495 254.472 183.495 255.678C183.495 256.884 170.025 257.928 170.025 259.134C170.025 260.34 200.15 260.58 201.145 261.786C202.14 262.992 162 263.502 162 264.948C162 266.394 192.055 266.64 192.055 267.762C192.055 268.884 179.055 270.606 179.055 270.606C179.055 270.606 197.555 269.052 197.555 267.522C197.555 265.992 188.265 265.836 188.055 265.59C187.845 265.344 216 263.58 216 261C216 258.42 190.32 258 190.32 257.544C190.32 257.088 214.275 256.176 214.275 254.004C214.275 251.832 184.88 252.078 184.88 251.604C184.88 251.13 223.035 249.252 223.035 248.046C223.035 245.814 192.535 245.334 192.535 244.206C192.535 242.196 234.535 243.528 234.535 240.072C234.535 237.978 201.33 237.492 201.355 235.362C201.39 232.542 257.725 232.464 257.725 229.248C257.725 226.848 233.67 225.48 233.67 225.48H120.605" fill="#3C7DC9"/>
<path d="M238.635 238.974C238.635 238.974 249.785 239.976 252.57 240.06C255.355 240.144 261.2 238.974 261.2 238.974H238.635Z" fill="#3C7DC9"/>
<path d="M29.415 247.8C29.415 247.8 40.56 248.802 43.35 248.886C46.14 248.97 52 247.8 52 247.8H29.415Z" fill="#3C7DC9"/>
<path d="M65.4651 234.93C65.4651 234.93 84.5951 236.73 89.3751 236.862C94.1551 236.994 104.175 234.93 104.175 234.93H65.4651Z" fill="#3C7DC9"/>
<path d="M106.825 247.068C106.825 247.068 130.58 249.468 136.515 249.66C142.45 249.852 154.895 247.068 154.895 247.068H106.825Z" fill="#3C7DC9"/>
<path d="M261.35 258.186C261.35 258.186 244.99 260.742 240.895 260.946C236.8 261.15 228.235 258.186 228.235 258.186H261.35Z" fill="#3C7DC9"/>
<path d="M207 227.232C207 227.232 218.145 228.918 220.935 229.032C223.725 229.146 229.56 227.232 229.56 227.232H207Z" fill="white"/>
<path d="M133.87 228.144C133.87 228.144 117.53 230.124 113.445 230.286C109.36 230.448 100.8 228.144 100.8 228.144H133.87Z" fill="#3C7DC9"/>
<path d="M332.565 244.314C332.565 244.314 298.33 246.78 289.77 246.978C281.21 247.176 263.27 244.314 263.27 244.314H332.565Z" fill="#3C7DC9"/>
<path d="M138.5 256.578C138.5 256.578 144.335 257.622 146.38 257.664C148.425 257.706 155.05 256.578 155.05 256.578H138.5Z" fill="#3C7DC9"/>
<path d="M263.83 260.4C263.83 260.4 269.665 261.444 271.71 261.486C273.755 261.528 280.38 260.4 280.38 260.4H263.83Z" fill="#3C7DC9"/>
<path d="M197.36 265.428C197.36 265.428 200.36 266.478 201.42 266.514C202.48 266.55 205.89 265.428 205.89 265.428H197.36Z" fill="#3C7DC9"/>
<path d="M215.885 250.2C215.885 250.2 220.11 250.914 221.59 250.938C223.07 250.962 227.87 250.2 227.87 250.2H215.885Z" fill="#3C7DC9"/>
<path d="M172.935 234.636C172.935 234.636 168.33 235.638 167.18 235.722C166.03 235.806 157.54 234.636 157.54 234.636H172.935Z" fill="white"/>
<path d="M200.725 232.266C200.725 232.266 197.61 233.274 196.835 233.352C196.06 233.43 190.31 232.266 190.31 232.266H200.725Z" fill="white"/>
<path d="M176.53 229.236L174.225 229.746L173.71 232.668L173.195 229.746L170.885 229.236L173.185 228.564L173.71 225.804L174.235 228.564L176.53 229.236Z" fill="white"/>
<path d="M209.825 241.614L207.52 242.124L207.005 245.046L206.49 242.124L204.18 241.614L206.475 240.936L207.005 238.182L207.53 240.936L209.825 241.614Z" fill="white"/>
<path d="M197.745 235.092C197.688 235.102 197.636 235.136 197.598 235.189C197.56 235.241 197.54 235.308 197.54 235.377C197.54 235.446 197.56 235.513 197.598 235.565C197.636 235.618 197.688 235.652 197.745 235.662C197.802 235.652 197.854 235.618 197.892 235.565C197.93 235.513 197.95 235.446 197.95 235.377C197.95 235.308 197.93 235.241 197.892 235.189C197.854 235.136 197.802 235.102 197.745 235.092V235.092Z" fill="white"/>
<path d="M177.525 233.694C177.468 233.704 177.416 233.738 177.378 233.791C177.34 233.843 177.32 233.91 177.32 233.979C177.32 234.048 177.34 234.115 177.378 234.167C177.416 234.22 177.468 234.254 177.525 234.264C177.582 234.254 177.634 234.22 177.672 234.167C177.71 234.115 177.73 234.048 177.73 233.979C177.73 233.91 177.71 233.843 177.672 233.791C177.634 233.738 177.582 233.704 177.525 233.694V233.694Z" fill="white"/>
<path d="M169.73 251.688C169.673 251.698 169.621 251.732 169.583 251.785C169.545 251.837 169.525 251.904 169.525 251.973C169.525 252.042 169.545 252.109 169.583 252.161C169.621 252.214 169.673 252.248 169.73 252.258C169.787 252.248 169.839 252.214 169.877 252.161C169.915 252.109 169.936 252.042 169.936 251.973C169.936 251.904 169.915 251.837 169.877 251.785C169.839 251.732 169.787 251.698 169.73 251.688Z" fill="white"/>
<path d="M200.435 261.996C200.378 262.006 200.326 262.04 200.288 262.093C200.25 262.145 200.23 262.212 200.23 262.281C200.23 262.35 200.25 262.417 200.288 262.469C200.326 262.522 200.378 262.556 200.435 262.566C200.492 262.556 200.544 262.522 200.582 262.469C200.62 262.417 200.641 262.35 200.641 262.281C200.641 262.212 200.62 262.145 200.582 262.093C200.544 262.04 200.492 262.006 200.435 261.996V261.996Z" fill="white"/>
<path d="M144.58 238.2C144.523 238.21 144.471 238.244 144.433 238.297C144.395 238.349 144.375 238.416 144.375 238.485C144.375 238.554 144.395 238.621 144.433 238.673C144.471 238.726 144.523 238.76 144.58 238.77C144.637 238.76 144.689 238.726 144.727 238.673C144.765 238.621 144.786 238.554 144.786 238.485C144.786 238.416 144.765 238.349 144.727 238.297C144.689 238.244 144.637 238.21 144.58 238.2V238.2Z" fill="white"/>
<path d="M252.32 227.73C252.263 227.74 252.211 227.774 252.173 227.827C252.135 227.879 252.115 227.946 252.115 228.015C252.115 228.084 252.135 228.151 252.173 228.203C252.211 228.256 252.263 228.29 252.32 228.3C252.377 228.29 252.429 228.256 252.467 228.203C252.505 228.151 252.526 228.084 252.526 228.015C252.526 227.946 252.505 227.879 252.467 227.827C252.429 227.774 252.377 227.74 252.32 227.73V227.73Z" fill="white"/>
<path d="M119.68 228.516C119.623 228.526 119.571 228.56 119.533 228.613C119.495 228.665 119.475 228.732 119.475 228.801C119.475 228.87 119.495 228.937 119.533 228.989C119.571 229.042 119.623 229.076 119.68 229.086C119.737 229.076 119.789 229.042 119.827 228.989C119.865 228.937 119.886 228.87 119.886 228.801C119.886 228.732 119.865 228.665 119.827 228.613C119.789 228.56 119.737 228.526 119.68 228.516Z" fill="white"/>
<path d="M162.795 230.058C162.682 230.072 162.577 230.136 162.501 230.238C162.425 230.339 162.383 230.471 162.383 230.607C162.383 230.743 162.425 230.875 162.501 230.976C162.577 231.078 162.682 231.142 162.795 231.156C162.908 231.142 163.013 231.078 163.089 230.976C163.165 230.875 163.207 230.743 163.207 230.607C163.207 230.471 163.165 230.339 163.089 230.238C163.013 230.136 162.908 230.072 162.795 230.058V230.058Z" fill="white"/>
<path d="M157.54 253.2C157.419 253.2 157.304 253.258 157.218 253.36C157.133 253.462 157.085 253.601 157.085 253.746C157.085 253.891 157.133 254.03 157.218 254.132C157.304 254.234 157.419 254.292 157.54 254.292C157.661 254.292 157.776 254.234 157.862 254.132C157.947 254.03 157.995 253.891 157.995 253.746C157.995 253.601 157.947 253.462 157.862 253.36C157.776 253.258 157.661 253.2 157.54 253.2Z" fill="white"/>
<path d="M240.885 228.516L239.42 228.84L239.09 230.7L238.765 228.84L237.295 228.516L238.755 228.09L239.09 226.338L239.425 228.09L240.885 228.516Z" fill="white"/>
<path d="M142.395 238.182L140.93 238.506L140.6 240.366L140.275 238.506L138.81 238.182L140.27 237.756L140.6 236.004L140.935 237.756L142.395 238.182Z" fill="white"/>
<path d="M224.7 239.688L223.88 239.868L223.695 240.906L223.515 239.868L222.695 239.688L223.51 239.448L223.695 238.47L223.885 239.448L224.7 239.688Z" fill="white"/>
<path d="M219.8 231.72C219.679 231.72 219.564 231.778 219.478 231.88C219.393 231.982 219.345 232.121 219.345 232.266C219.345 232.411 219.393 232.55 219.478 232.652C219.564 232.754 219.679 232.812 219.8 232.812C219.921 232.812 220.036 232.754 220.122 232.652C220.207 232.55 220.255 232.411 220.255 232.266C220.255 232.121 220.207 231.982 220.122 231.88C220.036 231.778 219.921 231.72 219.8 231.72V231.72Z" fill="white"/>
<path d="M182.24 253.194L181.42 253.374L181.24 254.412L181.055 253.374L180.235 253.194L181.05 252.954L181.24 251.976L181.425 252.954L182.24 253.194Z" fill="white"/>
<path d="M123.92 229.002L123.1 229.188L122.92 230.22L122.735 229.188L121.915 229.002L122.73 228.762L122.92 227.784L123.105 228.762L123.92 229.002Z" fill="white"/>
<path d="M184.245 232.266L183.425 232.446L183.245 233.484L183.06 232.446L182.24 232.266L183.055 232.026L183.245 231.048L183.43 232.026L184.245 232.266Z" fill="white"/>
</g>
<path d="M356.47 225.474C248.215 225.84 126.785 225.84 18.53 225.474C126.785 225.102 248.215 225.108 356.47 225.474Z" fill="#263238"/>
<path d="M355.83 225.474C355.83 225.474 329.33 186.594 323.935 183.108C319.82 180.45 308.25 158.274 299.865 142.776C298.865 140.904 294.985 142.44 294.055 140.706C290.92 134.826 288.38 129.942 287.055 127.434C284.38 122.304 268.955 124.668 266.435 127.434C265.14 128.85 256.99 152.478 251.16 162.39C249.29 165.576 236.995 167.61 231.95 169.242C227.08 170.82 213 198.204 209.2 200.4C188.26 212.484 183.085 223.278 178.92 225.474H355.83Z" fill="#3C7DC9"/>
<path opacity="0.5" d="M355.83 225.474C355.83 225.474 329.33 186.594 323.935 183.108C319.82 180.45 308.25 158.274 299.865 142.776C298.865 140.904 294.985 142.44 294.055 140.706C290.92 134.826 288.38 129.942 287.055 127.434C284.38 122.304 268.955 124.668 266.435 127.434C265.14 128.85 256.99 152.478 251.16 162.39C249.29 165.576 236.995 167.61 231.95 169.242C227.08 170.82 213 198.204 209.2 200.4C188.26 212.484 183.085 223.278 178.92 225.474H355.83Z" fill="white"/>
<path opacity="0.1" d="M355.82 225.462H250.435C256.805 220.308 270.37 209.142 271.56 206.742C273.115 203.604 275.135 180.9 275.715 177.888C276.295 174.876 287.08 156.888 287.53 153.648C287.98 150.408 286.195 126.804 286.16 126.318C286.202 126.345 286.241 126.38 286.275 126.42C286.322 126.46 286.368 126.504 286.41 126.552L286.535 126.678C286.57 126.726 286.61 126.762 286.64 126.81C286.683 126.857 286.723 126.907 286.76 126.96L286.805 127.026C286.839 127.069 286.871 127.115 286.9 127.164L286.955 127.26C286.985 127.32 287.015 127.362 287.045 127.422C287.075 127.482 287.17 127.656 287.235 127.788C287.3 127.92 287.375 128.052 287.445 128.19C287.515 128.328 287.595 128.472 287.67 128.616L287.91 129.072C289.335 131.79 291.485 135.912 294.035 140.688C294.068 140.751 294.106 140.809 294.15 140.862C294.185 140.914 294.225 140.96 294.27 141C294.322 141.057 294.379 141.107 294.44 141.15C294.486 141.185 294.535 141.215 294.585 141.24C294.585 141.24 294.925 152.64 294.855 153.63C294.785 154.62 291.665 161.862 291.48 163.428C291.295 164.994 291.76 171.036 291.48 172.326C291.305 173.076 288.195 180.984 287.375 182.916C287.15 183.444 289.615 183.096 289.68 183.096C289.99 183.096 292.9 176.07 293.46 175.566C294.02 175.062 294.485 165.612 294.875 164.898C295.265 164.184 299.055 156.36 299.55 155.496C300.045 154.632 299.865 142.764 299.865 142.764C301.435 145.668 303.12 148.806 304.865 152.01C305.295 152.808 305.73 153.618 306.165 154.41L306.605 155.22C307.002 155.96 307.402 156.698 307.805 157.434L309.44 160.434C309.715 160.932 309.985 161.43 310.26 161.922L311.07 163.386L311.875 164.826C312.945 166.74 313.995 168.582 315.005 170.322L315.76 171.606C317.675 174.852 319.44 177.654 320.92 179.712C321.165 180.042 321.42 180.36 321.625 180.654C321.78 180.858 321.935 181.05 322.08 181.254L322.35 181.578C322.61 181.884 322.85 182.178 323.095 182.394C323.095 182.394 313.805 190.794 312.43 193.194C311.055 195.594 307.72 210.732 306.645 212.472C305.57 214.212 298.43 221.178 298.725 221.742C299.02 222.306 312.225 218.91 313.725 215.64C315.225 212.37 318.4 199.98 319.875 198.3C321 197.01 326.375 191.394 329.275 188.73C341.675 204.3 355.29 224.904 355.82 225.462Z" fill="black"/>
<path opacity="0.1" d="M256.335 190.05C255.925 190.434 248.38 187.932 247.925 187.764C247.47 187.596 245 180 244.54 180.162C244.08 180.324 237.82 178.074 236.98 177.102C236.14 176.13 233.98 168.81 233.98 168.81L236.035 168.132C240.7 166.968 246.765 165.57 249.685 163.752C249.85 165.33 250.6 173.04 250.46 174.246C250.3 175.596 249.065 178.722 249.435 179.712C249.805 180.702 256.745 189.672 256.335 190.05Z" fill="black"/>
<path opacity="0.5" d="M280.135 124.458C280.135 124.458 269.325 126.348 267.775 129.606C266.225 132.864 254.1 162.006 252.55 163.746C251 165.486 235.785 170.568 233.96 172.698C232.135 174.828 222.115 198.774 218.34 201.876C214.565 204.978 210.31 205.56 208.145 207.492C206.145 209.256 192.375 223.092 190.025 225.462H178.92C183.085 223.266 188.26 212.472 209.2 200.388C212.99 198.204 227.08 170.82 231.96 169.242C237.005 167.61 249.3 165.576 251.17 162.39C257 152.478 265.17 128.85 266.445 127.428C268.03 125.694 274.72 124.11 280.135 124.458Z" fill="white"/>
<path d="M217.12 225.462C217.12 225.462 203.425 216.198 198.37 215.79C192.37 215.31 158.2 202.878 154.705 201.702C150.325 200.232 131.35 179.73 117.535 165.804C116.465 164.724 111.14 165.678 110.49 165.264C104.92 161.664 100.655 155.328 97.23 155.328C93.505 155.328 64.935 195.228 61.96 198.588C58.985 201.948 42.885 214.05 37.9 215.28C32.915 216.51 19.17 225.48 19.17 225.48L217.12 225.462Z" fill="#3C7DC9"/>
<path opacity="0.4" d="M217.12 225.462C217.12 225.462 203.425 216.198 198.37 215.79C192.37 215.31 158.2 202.878 154.705 201.702C150.325 200.232 131.35 179.73 117.535 165.804C116.465 164.724 111.14 165.678 110.49 165.264C104.92 161.664 100.655 155.328 97.23 155.328C93.505 155.328 64.935 195.228 61.96 198.588C58.985 201.948 42.885 214.05 37.9 215.28C32.915 216.51 19.17 225.48 19.17 225.48L217.12 225.462Z" fill="white"/>
<path opacity="0.1" d="M101.565 199.8C100.875 199.242 100.655 192.714 100.445 191.532C100.235 190.35 90.4999 180 90.4049 178.53C90.3099 177.06 97.2349 155.328 97.2349 155.328C93.5049 155.328 64.9349 195.234 61.9599 198.588C61.7749 198.792 61.5349 199.038 61.2549 199.314L60.7949 199.746C60.2249 200.274 59.5249 200.88 58.7249 201.546L58.0149 202.146C57.6449 202.452 57.2699 202.746 56.8699 203.07L56.0599 203.712C55.6499 204.036 55.2249 204.366 54.7899 204.696C54.4999 204.924 54.2049 205.146 53.9049 205.368C53.0149 206.04 52.0899 206.73 51.1499 207.402C47.9774 209.746 44.7009 211.881 41.3349 213.798L40.5949 214.182C40.3599 214.308 40.1249 214.416 39.9049 214.524C39.5699 214.686 39.2499 214.824 38.9599 214.938L38.3999 215.148L37.8999 215.292C37.5849 215.364 37.2449 215.478 36.8699 215.61C36.6799 215.67 36.4849 215.748 36.2849 215.826C36.0849 215.904 35.8749 215.988 35.6649 216.084L35.0049 216.366L34.3199 216.684C33.8549 216.906 33.3699 217.146 32.8699 217.398C32.3699 217.65 31.8699 217.92 31.3699 218.196L30.1999 218.832L29.8049 219.054L28.9999 219.48L28.6099 219.702L27.8249 220.158C23.2849 222.78 19.1749 225.462 19.1749 225.462H138.1C126.13 217.2 102.07 200.214 101.565 199.8ZM74.3699 197.844C73.9799 197.712 71.3699 194.208 71.0249 194.082C70.6799 193.956 69.8799 191.202 70.0749 191.082C70.5914 190.796 71.1225 190.55 71.6649 190.344C71.8549 190.314 72.8999 192.042 73.0899 192.042C73.2799 192.042 76.8799 192.042 77.2299 192.3C77.5799 192.558 80.3249 197.418 80.2299 197.856C80.0699 198.414 74.7499 198 74.3699 197.844Z" fill="black"/>
<path opacity="0.4" d="M217.11 225.456C216.94 225.372 205.475 225.456 205.475 225.456C203.535 223.116 199.4 219.726 197.745 219.324C195 218.658 185.555 216.426 182.695 215.352C179.835 214.278 154.53 204.822 149.165 202.962C143.8 201.102 117.5 168.048 116.13 168C114.76 167.952 110.425 168.6 109.205 168C107.985 167.4 100.455 156.756 97.2351 155.358C100.66 155.358 104.925 161.718 110.49 165.294C111.14 165.708 116.49 164.754 117.535 165.834C131.35 179.76 150.325 200.262 154.705 201.732C158.205 202.932 192.39 215.34 198.37 215.82C203.345 216.192 216.695 225.174 217.11 225.456Z" fill="white"/>
<path d="M25.8201 225.474C25.8201 225.474 43.8201 211.074 53.3701 205.836C55.0751 204.9 60.2701 204.888 60.9901 204.636C64.6251 203.328 74.8451 192.42 82.2451 184.794C83.1401 183.876 86.5551 184.632 87.3751 183.774C90.1451 180.882 92.3751 178.482 93.5451 177.246C95.9101 174.726 109.545 175.89 111.755 177.246C112.895 177.942 120.975 188.238 126.12 193.116C127.775 194.682 138.62 195.684 143.085 196.488C147.39 197.262 158.95 212.088 162.295 213.138C180.795 219.084 185.355 224.394 189.03 225.474H25.8201Z" fill="#3C7DC9"/>
<path opacity="0.3" d="M25.8201 225.474C25.8201 225.474 43.8201 211.074 53.3701 205.836C55.0751 204.9 60.2701 204.888 60.9901 204.636C64.6251 203.328 74.8451 192.42 82.2451 184.794C83.1401 183.876 86.5551 184.632 87.3751 183.774C90.1451 180.882 92.3751 178.482 93.5451 177.246C95.9101 174.726 109.545 175.89 111.755 177.246C112.895 177.942 120.975 188.238 126.12 193.116C127.775 194.682 138.62 195.684 143.085 196.488C147.39 197.262 158.95 212.088 162.295 213.138C180.795 219.084 185.355 224.394 189.03 225.474H25.8201Z" fill="white"/>
<path opacity="0.1" d="M125.885 225.468H25.8301H25.8601L25.9851 225.372L26.1351 225.246C28.5801 223.302 44.5751 210.666 53.3701 205.86C57.1701 207.906 63.8001 211.608 64.6151 212.13C65.9151 212.958 68.7301 219.054 70.0501 220.662C71.3701 222.27 83.0051 223.938 83.2651 223.662C83.5251 223.386 77.2201 219.96 76.2651 219.102C75.3101 218.244 72.3651 210.792 71.1551 209.616C69.9451 208.44 61.7401 204.3 61.7401 204.3C61.9451 204.186 62.1651 204.054 62.4001 203.898L62.6351 203.742L62.8701 203.574L63.0401 203.454L63.6601 202.992C64.2901 202.506 64.9801 201.936 65.7151 201.288C65.8201 201.198 65.9251 201.108 66.0301 201.006C66.7251 200.406 67.4551 199.722 68.2151 199.002C68.4401 198.798 68.6601 198.588 68.8851 198.372L69.8301 197.46L70.9401 196.374L71.6451 195.672L72.3551 194.958C72.5951 194.726 72.8351 194.486 73.0751 194.238L73.7951 193.512L75.2451 192.036L76.3051 190.944L76.6901 190.548C77.0751 190.158 77.4601 189.756 77.8351 189.348L79.3351 187.782L81.5251 185.52L82.2251 184.8C82.2251 184.8 82.0601 190.638 82.5001 191.064C82.9401 191.49 86.2851 195.33 86.6301 195.684C86.9751 196.038 87.3851 200.688 87.8801 200.934C88.3751 201.18 90.9401 204.642 91.2151 204.642C91.2751 204.642 93.4501 204.81 93.2501 204.552C92.5301 203.598 89.7801 199.71 89.6301 199.344C89.3651 198.708 89.7751 195.744 89.6301 194.964C89.4851 194.184 86.7201 190.638 86.6301 190.164C86.5401 189.69 86.8701 184.074 86.8701 184.074L86.9951 184.026C87.0473 184.009 87.0977 183.985 87.1451 183.954L87.2551 183.888C87.2914 183.863 87.325 183.833 87.3551 183.798C87.9184 183.21 88.4584 182.644 88.9751 182.1L90.0851 180.93L90.4301 180.564L90.7651 180.21L91.4301 179.502C91.5551 179.37 91.6801 179.244 91.7951 179.112C91.9101 178.98 92.0301 178.866 92.1401 178.746C92.2501 178.626 92.3601 178.518 92.4601 178.404L92.5201 178.344L92.7651 178.086L92.9751 177.864L93.1701 177.654L93.3551 177.456L93.4451 177.36L93.5251 177.276L93.6051 177.198L93.6551 177.15L93.7401 177.078L93.7751 177.048L93.8801 176.976L93.9751 176.91L94.0901 176.844L94.2051 176.784C94.237 176.762 94.2704 176.744 94.3051 176.73V176.73C94.2751 176.97 92.7001 188.592 93.0951 190.17C93.4901 191.748 103.02 200.622 103.53 202.098C104.04 203.574 105.825 214.752 107.2 216.294C108.285 217.44 120.265 222.93 125.885 225.468Z" fill="black"/>
<path opacity="0.1" d="M121.565 206.712C121.925 206.904 128.59 205.674 128.985 205.59C129.38 205.506 131.555 201.78 131.985 201.852C132.415 201.924 137.92 200.826 138.66 200.346C139.4 199.866 141.33 196.266 141.33 196.266L139.515 195.936C135.395 195.336 130.015 194.676 127.455 193.782C127.315 194.556 126.65 198.348 126.775 198.942C126.9 199.536 128.005 201.144 127.68 201.63C127.355 202.116 121.2 206.526 121.565 206.712Z" fill="black"/>
<path opacity="0.4" d="M189.03 225.468H177.03C176.565 225.246 161.18 216.024 158.53 214.548C155.88 213.072 143.965 198.948 142.1 198.306C140.235 197.664 125.8 195.684 124.805 195.12C123.81 194.556 113 179.922 111.425 178.422C109.85 176.922 103.625 175.842 100.865 175.758C105.365 175.758 110.465 176.46 111.755 177.24C112.895 177.936 120.975 188.232 126.12 193.11C127.775 194.676 138.62 195.678 143.085 196.476C147.39 197.256 158.95 212.076 162.295 213.132C180.785 219.078 185.355 224.4 189.03 225.468Z" fill="white"/>
<path d="M147.67 225.462C147.67 225.462 161.61 218.808 166.76 218.514C172.845 218.166 207.65 209.232 211.205 208.386C215.66 207.33 232.98 192.594 247.045 182.586C248.13 181.812 253.545 182.496 254.21 182.196C259.88 179.628 266.21 175.056 269.71 175.056C273.5 175.056 302.585 203.736 305.61 206.148C308.635 208.56 325.03 217.266 330.11 218.148C335.19 219.03 349.175 225.462 349.175 225.462H147.67Z" fill="#3C7DC9"/>
<path opacity="0.4" d="M147.67 225.462C147.67 225.462 161.61 218.808 166.76 218.514C172.845 218.166 207.65 209.232 211.205 208.386C215.66 207.33 232.98 192.594 247.045 182.586C248.13 181.812 253.545 182.496 254.21 182.196C259.88 179.628 266.21 175.056 269.71 175.056C273.5 175.056 302.585 203.736 305.61 206.148C308.635 208.56 325.03 217.266 330.11 218.148C335.19 219.03 349.175 225.462 349.175 225.462H147.67Z" fill="white"/>
<path opacity="0.1" d="M228.11 225.462H349.17C349.17 225.462 344.985 223.542 340.36 221.652L339.565 221.328L339.165 221.166L338.365 220.848L337.965 220.692L336.775 220.236C336.275 220.038 335.73 219.84 335.22 219.636C334.71 219.432 334.22 219.282 333.75 219.126L333.05 218.898L332.38 218.694L331.75 218.508C331.545 218.448 331.345 218.4 331.155 218.352C330.77 218.256 330.42 218.178 330.105 218.124C329.945 218.094 329.775 218.064 329.605 218.022L329.035 217.872C328.735 217.788 328.415 217.686 328.075 217.572C327.845 217.494 327.61 217.416 327.37 217.326C327.13 217.236 326.87 217.146 326.62 217.05C323.785 215.964 320.12 214.242 316.62 212.454C315.665 211.968 314.725 211.476 313.815 210.99L312.915 210.51L311.62 209.802L310.795 209.34C310.395 209.118 310.005 208.896 309.635 208.674C309.385 208.536 309.135 208.392 308.91 208.254C308.1 207.774 307.41 207.342 306.8 206.958L306.335 206.646C306.05 206.448 305.805 206.274 305.615 206.124C302.59 203.724 273.505 175.032 269.71 175.032C269.71 175.032 276.745 190.632 276.66 191.712C276.575 192.792 266.66 200.262 266.445 201.054C266.23 201.846 266.005 206.598 265.305 207C264.785 207.318 240.295 219.522 228.11 225.462ZM287.025 205.614C286.92 205.302 289.715 201.804 290.07 201.624C290.425 201.444 294.07 201.438 294.28 201.438C294.49 201.438 295.54 200.196 295.735 200.238C295.93 200.28 297.155 200.676 297.35 200.766C297.545 200.856 296.76 202.854 296.385 202.932C296.01 203.01 293.385 205.542 292.98 205.632C292.575 205.722 287.175 206.028 287.025 205.614V205.614Z" fill="black"/>
<path opacity="0.5" d="M269.705 175.056C268.425 175.482 256.205 182.814 254.47 183.144C252.735 183.474 248.265 183.078 247.655 183.81C247.045 184.542 220.155 208.95 215.555 211.728C210.955 214.506 182.755 219.126 178.92 219.882C175.685 220.482 169.275 224.298 167.35 225.462H147.67C147.67 225.462 161.61 218.808 166.76 218.514C172.845 218.166 207.65 209.232 211.205 208.386C215.66 207.33 232.98 192.594 247.045 182.586C248.13 181.812 253.545 182.496 254.21 182.196C259.875 179.628 266.22 175.062 269.705 175.056Z" fill="white"/>
<path d="M0 279.804H53.715L47.425 246.522C42.355 246.126 35.985 244.572 30.27 240.096L46.915 243.81L39.235 203.13C36.7767 201.753 34.479 199.996 32.4 197.904L38.695 200.304L37.695 194.904C34.1955 193.081 30.9902 190.534 28.225 187.38L37.055 191.52L26.865 137.646L21.12 168.072L26.28 166.524C24.5143 167.947 22.6509 169.188 20.71 170.232L12.465 213.828L18.465 212.028C16.4371 213.665 14.2861 215.071 12.04 216.228L6.31 246.402L18 242.91C14.2258 245.91 10.077 248.168 5.71 249.6L4.71 254.856L22.64 249.486C22.64 249.486 14.685 256.254 4.21 257.52L2.79 265.05L8.755 263.25C6.72841 264.886 4.57911 266.292 2.335 267.45L0 279.804Z" fill="#455A64"/>
<path d="M9.88503 236.736C12.855 238.098 23.885 243.474 26.235 245.046C26.235 244.446 26.235 243.846 26.235 243.246C23.5684 241.374 20.9017 239.512 18.235 237.66C15.375 235.662 12.305 233.88 9.64503 231.534C9.51503 231.414 9.58503 231.096 9.76503 231.186C12.7 232.656 15.43 234.828 18.17 236.76C20.91 238.692 23.55 240.624 26.215 242.598C26.215 238.002 26.2317 233.402 26.265 228.798C21.9261 226.642 17.7335 224.084 13.725 221.148C13.585 221.052 13.675 220.746 13.835 220.83C18.1382 222.902 22.3051 225.361 26.3 228.186C26.3 225.786 26.235 207.39 26.73 184.086C24.12 182.508 21.435 181.116 18.825 179.526C18.655 179.424 18.775 179.064 18.96 179.148C21.605 180.39 24.155 181.86 26.75 183.228C26.895 176.88 27.095 170.532 27.42 164.19C27.42 164.147 27.4343 164.106 27.4596 164.075C27.4849 164.045 27.5192 164.028 27.555 164.028C27.5908 164.028 27.6252 164.045 27.6505 164.075C27.6758 164.106 27.69 164.147 27.69 164.19C28.055 175.98 28.025 198.786 27.905 210.582C30.605 207.996 33.49 205.704 36.24 203.19C36.345 203.094 36.45 203.31 36.345 203.406C33.47 206.034 30.775 208.944 27.89 211.56C27.89 212.226 27.89 212.898 27.89 213.564C30.82 211.956 33.795 210.456 36.76 208.932C36.99 208.818 37.195 209.214 36.96 209.352C33.96 211.086 30.96 212.856 27.88 214.494C27.81 220.338 27.38 241.422 27.185 251.628C32.7217 248.268 38.295 245.002 43.905 241.83C44.12 241.704 44.305 242.07 44.095 242.214C38.6105 245.977 32.9606 249.382 27.17 252.414C27.02 260.892 26.875 270.942 26.785 279.414C26.7751 279.511 26.7357 279.601 26.6745 279.666C26.6133 279.731 26.5343 279.767 26.4525 279.767C26.3708 279.767 26.2918 279.731 26.2306 279.666C26.1693 279.601 26.13 279.511 26.12 279.414C26.215 268.614 26.23 256.212 26.255 245.4C23.34 244.536 12.315 238.872 9.70003 237.318C9.41003 237.168 9.60003 236.604 9.88503 236.736Z" fill="#37474F"/>
<g opacity="0.2">
<path d="M37.035 191.49L33.2 189.69L26.865 137.646L37.035 191.49Z" fill="white"/>
<path d="M38.695 200.292L34.285 198.6L33.5 192.258C34.8379 193.241 36.2294 194.115 37.665 194.874L38.695 200.292Z" fill="white"/>
<path d="M46.9151 243.81L39.585 242.172L34.425 199.8C35.9427 201.086 37.5523 202.209 39.2351 203.154L46.9151 243.81Z" fill="white"/>
<path d="M53.7149 279.804H44.1649L39.9449 245.112C42.4029 245.861 44.9138 246.333 47.4449 246.522L53.7149 279.804Z" fill="white"/>
</g>
<path d="M307.77 279.804H361.5L355.2 246.522C350.125 246.126 343.755 244.572 338.04 240.096L354.685 243.81L347 203.13C344.54 201.754 342.24 199.997 340.16 197.904L346.455 200.304L345.455 194.904C341.959 193.069 338.759 190.513 336 187.35L344.83 191.49L334.66 137.646L328.915 168.072L334.075 166.524C332.308 167.948 330.443 169.188 328.5 170.232L320.26 213.828L326.26 212.028C324.23 213.664 322.077 215.07 319.83 216.228L314.12 246.414L325.79 242.922C322.016 245.919 317.867 248.173 313.5 249.6L312.5 254.856L330.425 249.486C330.425 249.486 322.455 256.254 312 257.52L310.58 265.05L316.545 263.25C314.518 264.886 312.369 266.292 310.125 267.45L307.77 279.804Z" fill="#455A64"/>
<path d="M317.655 236.736C320.625 238.098 331.655 243.474 334.01 245.046C334.01 244.446 334.01 243.846 334.01 243.246C331.343 241.374 328.677 239.512 326.01 237.66C323.15 235.662 320.085 233.88 317.42 231.534C317.29 231.414 317.36 231.096 317.54 231.186C320.48 232.656 323.205 234.828 325.945 236.76C328.685 238.692 331.35 240.6 334 242.592C334 237.996 334.025 233.4 334.05 228.792C329.712 226.635 325.519 224.077 321.51 221.142C321.37 221.046 321.465 220.74 321.62 220.824C325.913 222.896 330.07 225.353 334.055 228.174C334.055 225.774 333.995 207.378 334.49 184.074C331.88 182.496 329.19 181.104 326.585 179.514C326.41 179.412 326.535 179.052 326.715 179.136C329.36 180.378 331.91 181.848 334.51 183.216C334.65 176.868 334.85 170.52 335.175 164.178C335.175 164.135 335.189 164.094 335.215 164.063C335.24 164.033 335.274 164.016 335.31 164.016C335.346 164.016 335.38 164.033 335.405 164.063C335.431 164.094 335.445 164.135 335.445 164.178C335.815 175.968 335.785 198.774 335.66 210.57C338.36 207.984 341.245 205.692 343.995 203.178C344.1 203.082 344.205 203.298 344.1 203.394C341.225 206.022 338.535 208.932 335.65 211.548C335.65 212.214 335.65 212.886 335.65 213.552C338.58 211.944 341.555 210.444 344.515 208.92C344.745 208.806 344.955 209.202 344.715 209.34C341.715 211.074 338.715 212.844 335.635 214.482C335.565 220.326 335.135 241.41 334.94 251.616C340.477 248.256 346.052 244.99 351.665 241.818C351.875 241.692 352.06 242.058 351.85 242.202C346.368 245.966 340.719 249.371 334.93 252.402C334.78 260.88 334.63 270.93 334.54 279.402C334.53 279.499 334.491 279.589 334.429 279.654C334.368 279.719 334.289 279.755 334.207 279.755C334.126 279.755 334.047 279.719 333.986 279.654C333.924 279.589 333.885 279.499 333.875 279.402C333.975 268.602 333.99 256.2 334.015 245.388C331.095 244.524 320.07 238.86 317.455 237.306C317.18 237.168 317.37 236.604 317.655 236.736Z" fill="#37474F"/>
<g opacity="0.3">
<path d="M312 257.52C315.325 257.09 318.591 256.157 321.72 254.742L318.95 279.804H307.77L310.105 267.438C312.349 266.28 314.498 264.874 316.525 263.238L310.56 265.038L312 257.52Z" fill="white"/>
<path d="M313.5 249.6C316.727 248.528 319.841 247.02 322.785 245.106L322 252L312.5 254.85L313.5 249.6Z" fill="white"/>
<path d="M328.5 170.232C329.54 169.632 330.46 169.092 331.235 168.582L322.93 243.762L314.1 246.402L319.81 216.216C322.057 215.058 324.21 213.652 326.24 212.016L320.24 213.816L328.5 170.232Z" fill="white"/>
<path d="M334.635 137.646L331.355 167.334L328.89 168.072L334.635 137.646Z" fill="white"/>
</g>
<path d="M324.745 279.804H266.9L269.725 261.552C281.845 260.604 291.295 250.752 291.295 250.752L270.205 258.474L278 208.116C281.142 206.359 284.092 204.142 286.78 201.516L278.55 204.516L279.82 196.308C284.338 194.35 288.55 191.494 292.28 187.86L280.465 192.168L287.835 144.492C289.399 143.358 290.892 142.086 292.3 140.688L288.185 142.2L295.835 92.718L306.79 163.608L297.29 158.154C300.148 162.184 303.607 165.539 307.49 168.048L317.81 234.804L301.81 227.394C306.366 232.964 312.118 236.91 318.43 238.794L319.49 245.61L310.88 243.264C313.638 245.905 316.744 247.975 320.07 249.39L324.745 279.804Z" fill="#37474F"/>
<path d="M315.075 219C311.62 220.584 299.315 226.554 296.545 228.384C296.545 227.682 296.545 226.98 296.545 226.284C299.635 224.1 302.74 221.94 305.84 219.774C309.165 217.452 311.38 216.618 314.48 213.882C314.63 213.75 314.55 213.372 314.34 213.48C311.421 214.958 308.604 216.712 305.915 218.724C302.765 220.944 299.65 223.224 296.54 225.528C296.54 220.176 296.522 214.824 296.485 209.472C301.537 206.957 306.42 203.979 311.09 200.562C311.25 200.448 311.145 200.094 310.96 200.184C305.954 202.598 301.107 205.462 296.46 208.752C296.46 205.968 296.435 203.184 296.41 200.4C296.285 186.072 296.26 171.72 295.955 157.386C298.995 155.544 302.125 153.924 305.16 152.076C305.36 151.956 305.22 151.536 305.01 151.638C301.925 153.078 298.955 154.794 295.93 156.384C295.765 148.992 295.53 141.6 295.155 134.214C295.148 134.17 295.129 134.13 295.1 134.101C295.071 134.072 295.035 134.056 294.997 134.056C294.96 134.056 294.924 134.072 294.895 134.101C294.866 134.13 294.847 134.17 294.84 134.214C294.41 147.942 294.45 161.688 294.59 175.428C291.445 172.428 288.09 169.746 284.885 166.824C284.76 166.71 284.64 166.962 284.76 167.07C288.11 170.13 291.26 173.52 294.605 176.568C294.605 177.348 294.605 178.122 294.605 178.896C291.19 177.024 287.725 175.296 284.275 173.496C284.005 173.358 283.775 173.82 284.04 173.982C287.54 176.004 291.04 178.062 294.615 179.982C294.695 186.786 294.795 193.59 294.865 200.382C294.995 212.268 295.215 224.148 295.425 236.034C288.982 232.122 282.49 228.322 275.95 224.634C275.7 224.49 275.485 224.91 275.73 225.078C282.136 229.457 288.736 233.415 295.5 236.934C295.675 246.81 295.845 269.478 295.95 279.354C295.95 279.478 295.991 279.597 296.064 279.685C296.137 279.773 296.237 279.822 296.34 279.822C296.443 279.822 296.543 279.773 296.616 279.685C296.689 279.597 296.73 279.478 296.73 279.354C296.615 266.754 296.595 241.368 296.57 228.774C299.965 227.766 312.29 221.46 315.34 219.654C315.63 219.468 315.41 218.814 315.075 219Z" fill="#455A64"/>
<g opacity="0.3">
<path d="M269.725 261.552C272.487 261.316 275.214 260.663 277.84 259.608L275.665 279.804H266.9L269.725 261.552Z" fill="white"/>
<path d="M278 208.116C280.024 206.962 281.974 205.63 283.835 204.132L278.295 255.504L270.215 258.462L278 208.116Z" fill="white"/>
<path d="M279.81 196.296C281.576 195.535 283.297 194.628 284.96 193.584L284 202.512L278.545 204.504L279.81 196.296Z" fill="white"/>
<path d="M287.825 144.48C288.88 143.694 289.775 142.962 290.48 142.356L285.305 190.386L280.455 192.156L287.825 144.48Z" fill="white"/>
<path d="M295.835 92.7L290.595 141.3L288.185 142.182L295.835 92.7Z" fill="white"/>
</g>
<path d="M375 279.804H332.78L337.725 253.65C341.725 253.338 346.725 252.114 351.225 248.592L338.14 251.514L344.175 219.54C346.108 218.459 347.915 217.079 349.55 215.436L344.605 217.314L345.4 213.054C348.151 211.622 350.67 209.621 352.845 207.144L345.91 210.396L353.91 168.072L358.41 191.988L354.355 190.788C355.744 191.907 357.209 192.883 358.735 193.704L365.21 227.97L360.51 226.56C362.107 227.841 363.799 228.941 365.565 229.848L370.065 253.566L360.87 250.8C363.83 253.146 367.08 254.916 370.5 256.044L371.28 260.172L357.19 255.972C361.547 259.409 366.512 261.579 371.69 262.308L372.81 268.224L368.12 266.826C369.712 268.105 371.402 269.202 373.165 270.102L375 279.804Z" fill="#37474F"/>
<path d="M367.23 245.958C364.895 247.026 356.23 251.25 354.38 252.486C354.38 252.012 354.38 251.538 354.38 251.064C356.463 249.592 358.553 248.128 360.65 246.672C362.895 245.106 365.31 243.708 367.4 241.872C367.505 241.782 367.45 241.53 367.305 241.602C365 242.754 362.855 244.464 360.7 245.976C358.545 247.488 356.475 249.018 354.375 250.572C354.375 246.972 354.363 243.36 354.34 239.736C357.748 238.04 361.042 236.034 364.195 233.736C364.305 233.658 364.23 233.418 364.105 233.478C360.732 235.11 357.466 237.043 354.335 239.262C354.335 237.384 354.385 222.918 353.995 204.6C356.045 203.358 358.16 202.26 360.21 201C360.34 200.922 360.25 200.64 360.105 200.706C358 201.666 356 202.8 354 203.898C353.89 198.906 353.73 193.92 353.475 188.94C353.47 188.911 353.456 188.884 353.437 188.865C353.417 188.846 353.393 188.836 353.367 188.836C353.342 188.836 353.318 188.846 353.298 188.865C353.279 188.884 353.265 188.911 353.26 188.94C352.975 198.204 353 216.126 353.095 225.402C350.97 223.362 348.705 221.562 346.54 219.588C346.46 219.516 346.375 219.684 346.46 219.762C348.72 221.826 350.835 224.112 353.105 226.17V227.742C350.8 226.476 348.465 225.3 346.135 224.106C345.955 224.01 345.79 224.322 345.975 224.43C348.35 225.798 350.71 227.184 353.115 228.474C353.17 233.07 353.515 249.642 353.66 257.658C349.327 255.018 344.945 252.45 340.515 249.954C340.35 249.864 340.205 250.146 340.37 250.26C344.68 253.217 349.12 255.892 353.67 258.276C353.79 264.942 353.905 272.838 353.975 279.504C353.984 279.58 354.015 279.65 354.063 279.7C354.112 279.751 354.173 279.778 354.237 279.778C354.301 279.778 354.363 279.751 354.412 279.7C354.46 279.65 354.491 279.58 354.5 279.504C354.42 271.002 354.41 261.27 354.39 252.768C356.685 252.09 365.345 247.638 367.39 246.42C367.605 246.294 367.455 245.85 367.23 245.958Z" fill="#455A64"/>
<g opacity="0.2">
<path d="M337.725 253.65C339.519 253.517 341.301 253.2 343.05 252.702L339.58 279.804H332.78L337.725 253.65Z" fill="white"/>
<path d="M344.16 219.54C345.354 218.869 346.503 218.087 347.595 217.2L343.35 250.344L338.125 251.514L344.16 219.54Z" fill="white"/>
<path d="M345.385 213.054C346.414 212.512 347.416 211.896 348.385 211.212L347.76 216.12L344.615 217.32L345.385 213.054Z" fill="white"/>
<path d="M353.885 168.072L348.63 209.112L345.895 210.396L353.885 168.072Z" fill="white"/>
</g>
<path d="M93.635 279.804H35.795L38.615 261.552C50.735 260.604 60.185 250.752 60.185 250.752L39.095 258.462L46.88 208.116C50.0233 206.361 52.9725 204.144 55.66 201.516L47.43 204.516L48.705 196.308C53.2215 194.349 57.4318 191.493 61.16 187.86L49.35 192.156L56.72 144.48C58.2825 143.345 59.7732 142.074 61.18 140.676L57.075 142.2L64.725 92.718L75.68 163.608L66.18 158.154C69.0388 162.186 72.4998 165.541 76.385 168.048V168.048L86.7 234.804L70.7 227.394C75.2547 232.966 81.008 236.912 87.32 238.794L88.38 245.61L79.765 243.264C82.5233 245.905 85.6292 247.975 88.955 249.39L93.635 279.804Z" fill="#37474F"/>
<path d="M83.97 219C80.51 220.584 68.205 226.554 65.44 228.384C65.44 227.682 65.44 226.98 65.44 226.284C68.53 224.1 71.635 221.94 74.735 219.774C78.065 217.452 80.275 216.618 83.375 213.882C83.53 213.75 83.445 213.372 83.235 213.48C80.3158 214.958 77.4986 216.712 74.81 218.724C71.66 220.944 68.545 223.224 65.44 225.528C65.44 220.176 65.42 214.824 65.38 209.472C70.4375 206.947 75.3253 203.958 80 200.532C80.16 200.418 80.05 200.064 79.865 200.154C74.8593 202.569 70.0123 205.433 65.365 208.722C65.365 205.938 65.365 203.154 65.315 200.37C65.19 186.042 65.165 171.69 64.86 157.356C67.9 155.514 71.03 153.894 74.07 152.046C74.265 151.926 74.13 151.506 73.915 151.608C70.83 153.048 67.865 154.764 64.84 156.354C64.675 148.962 64.44 141.57 64.065 134.184C64.065 134.133 64.0482 134.084 64.0182 134.048C63.9882 134.012 63.9475 133.992 63.905 133.992C63.8626 133.992 63.8219 134.012 63.7919 134.048C63.7619 134.084 63.745 134.133 63.745 134.184C63.32 147.912 63.355 161.658 63.5 175.398C60.35 172.398 57 169.716 53.79 166.794C53.665 166.68 53.545 166.932 53.665 167.04C57.015 170.1 60.165 173.49 63.51 176.538C63.51 177.318 63.51 178.092 63.51 178.866C60.095 176.994 56.63 175.266 53.18 173.466C52.91 173.328 52.68 173.79 52.945 173.952C56.445 175.974 59.945 178.032 63.52 179.952C63.605 186.756 63.7 193.56 63.775 200.352C63.9 212.238 64.12 224.118 64.33 236.004C57.89 232.092 51.3984 228.292 44.855 224.604C44.61 224.46 44.39 224.88 44.64 225.048C51.0238 229.434 57.6019 233.4 64.345 236.928C64.52 246.804 64.695 269.472 64.8 279.348C64.8109 279.462 64.8564 279.568 64.9278 279.644C64.9993 279.721 65.0917 279.763 65.1875 279.763C65.2833 279.763 65.3758 279.721 65.4473 279.644C65.5187 279.568 65.5642 279.462 65.575 279.348C65.46 266.748 65.445 241.362 65.415 228.768C68.81 227.76 81.135 221.454 84.185 219.648C84.525 219.468 84.3 218.814 83.97 219Z" fill="#455A64"/>
<g opacity="0.3">
<path d="M75.675 163.59L71.25 161.052L64.725 92.7L75.675 163.59Z" fill="white"/>
<path d="M86.6799 234.798L77.9049 230.736L71.5599 164.298C73.0761 165.691 74.6811 166.939 76.3599 168.03V168.03L86.6799 234.798Z" fill="white"/>
<path d="M93.635 279.804H82.59L78.255 234.426C81.0951 236.354 84.1346 237.825 87.295 238.8L88.355 245.616L79.745 243.27C82.5033 245.911 85.6092 247.981 88.935 249.396L93.635 279.804Z" fill="white"/>
</g>
<path d="M375 237.24C375 237.24 313.56 248.844 280.75 260.34C237.375 275.544 211.5 258.54 149.25 271.842C113.885 279.402 76.5 263.4 62.81 260.742C40.125 256.35 0 255.24 0 255.24V299.892H375V237.24Z" fill="#3C7DC9"/>
<g opacity="0.1">
<path d="M375 237.24C375 237.24 313.56 248.844 280.75 260.34C237.375 275.544 211.5 258.54 149.25 271.842C113.885 279.402 76.5 263.4 62.81 260.742C40.125 256.35 0 255.24 0 255.24V299.892H375V237.24Z" fill="black"/>
</g>
<path opacity="0.2" d="M375 237.24V246.984C375 246.984 347.53 246.384 334.14 249.948C320.75 253.512 265.945 267 253.75 267.894C241.555 268.788 221.605 268.872 210.41 268.566C199.215 268.26 158.41 274.458 129.715 274.992C101.02 275.526 73.5 264.882 61.43 262.458C49.36 260.034 0 260.952 0 260.952V255.24C0 255.24 40.125 256.35 62.815 260.742C76.515 263.394 113.885 279.402 149.25 271.842C211.5 258.546 237.375 275.544 280.75 260.34C313.56 248.844 375 237.24 375 237.24Z" fill="white"/>
</g>
</g>
<defs>
<clipPath id="clip0_9_138">
<rect width="375" height="300" rx="5" fill="white"/>
</clipPath>
<clipPath id="clip1_9_138">
<rect width="375" height="300" fill="white"/>
</clipPath>
</defs>
</svg>
