<svg width="350" height="200" viewBox="0 0 350 200" fill="none" xmlns="http://www.w3.org/2000/svg">
<rect width="350" height="200" rx="2" fill="white"/>
<path d="M172.2 71.4966C171.931 71.4971 171.664 71.452 171.41 71.3633L167.333 69.95C166.933 69.8099 166.575 69.5672 166.298 69.2461C166.02 68.925 165.831 68.5368 165.75 68.12L164.933 63.8767C164.853 63.4594 164.884 63.0284 165.024 62.627C165.163 62.2256 165.405 61.8679 165.727 61.59L168.99 58.7633C169.312 58.4853 169.701 58.2966 170.119 58.2159C170.536 58.1351 170.968 58.1653 171.37 58.3033L175.45 59.72C175.852 59.859 176.21 60.1013 176.488 60.4225C176.767 60.7438 176.956 61.1326 177.037 61.55L177.85 65.79C177.929 66.2074 177.898 66.6384 177.76 67.0401C177.621 67.4418 177.38 67.8003 177.06 68.08L173.793 70.9066C173.351 71.2889 172.785 71.4984 172.2 71.4966ZM168.333 67.4766L172.147 68.81L175.2 66.17L174.437 62.2066L170.623 60.8733L167.573 63.5167L168.333 67.4766Z" fill="#F5F5F5"/>
<path d="M219.813 59.18C219.544 59.1804 219.277 59.1353 219.023 59.0466L216.957 58.33C216.555 58.1904 216.198 57.9479 215.92 57.6268C215.642 57.3056 215.454 56.917 215.373 56.5L214.96 54.3533C214.88 53.9364 214.911 53.5058 215.05 53.1045C215.188 52.7033 215.43 52.3454 215.75 52.0666L217.417 50.6333C217.738 50.3556 218.127 50.1672 218.544 50.0871C218.961 50.0069 219.392 50.0378 219.793 50.1766L221.857 50.8933C222.258 51.0324 222.616 51.2747 222.895 51.5959C223.173 51.9171 223.363 52.3059 223.443 52.7233L223.857 54.87C223.937 55.2872 223.906 55.7182 223.766 56.1196C223.627 56.521 223.385 56.8787 223.063 57.1566L221.397 58.59C220.956 58.9687 220.394 59.1779 219.813 59.18V59.18ZM217.963 55.8466L219.763 56.47L221.2 55.2233L220.84 53.3566L219.043 52.7333L217.603 54L217.963 55.8466Z" fill="#F5F5F5"/>
<path d="M276.893 90.59C276.63 90.5881 276.37 90.5273 276.133 90.4119C275.896 90.2966 275.687 90.1296 275.523 89.9233L274.36 88.47C274.168 88.2296 274.042 87.943 273.995 87.6389C273.949 87.3348 273.982 87.0237 274.093 86.7367L274.76 85.0033C274.872 84.7167 275.057 84.4645 275.296 84.272C275.536 84.0795 275.823 83.9535 276.127 83.9067L277.967 83.6233C278.271 83.5772 278.583 83.6117 278.87 83.7234C279.157 83.8351 279.41 84.0201 279.603 84.26L280.767 85.7133C280.959 85.9537 281.084 86.2403 281.131 86.5444C281.178 86.8485 281.144 87.1596 281.033 87.4467L280.367 89.18C280.255 89.4672 280.07 89.7199 279.829 89.9125C279.588 90.105 279.301 90.2307 278.997 90.2767L277.157 90.56C277.07 90.5767 276.982 90.5868 276.893 90.59V90.59ZM278.243 84.9467H278.18L276.34 85.23C276.266 85.2409 276.197 85.271 276.138 85.3172C276.08 85.3634 276.034 85.4241 276.007 85.4933L275.34 87.2267C275.313 87.2955 275.304 87.3703 275.316 87.4435C275.327 87.5167 275.357 87.5856 275.403 87.6433L276.567 89.0967C276.614 89.1536 276.674 89.1976 276.743 89.2245C276.812 89.2513 276.887 89.2601 276.96 89.25L278.8 88.9667C278.874 88.9564 278.944 88.9265 279.002 88.8802C279.061 88.834 279.106 88.7729 279.133 88.7033L279.8 86.97C279.826 86.901 279.834 86.8263 279.823 86.7533C279.812 86.6803 279.782 86.6113 279.737 86.5533V86.5533L278.573 85.1C278.533 85.0519 278.482 85.0132 278.425 84.9867C278.368 84.9602 278.306 84.9465 278.243 84.9467V84.9467Z" fill="#E0E0E0"/>
<path d="M69.2333 105.077C68.8952 105.076 68.5614 105 68.2564 104.854C67.9513 104.708 67.6827 104.496 67.47 104.233L64.7366 100.82C64.4913 100.51 64.3314 100.142 64.273 99.7511C64.2145 99.3604 64.2594 98.9612 64.4033 98.5933L66 94.5166C66.1439 94.1485 66.3819 93.8246 66.6901 93.5772C66.9984 93.3298 67.3661 93.1675 67.7566 93.1067L72.09 92.44C72.4811 92.3812 72.8809 92.426 73.2493 92.5699C73.6178 92.7138 73.9421 92.9517 74.19 93.26L76.9 96.6666C77.1456 96.9768 77.3056 97.3459 77.3641 97.7372C77.4226 98.1285 77.3775 98.5282 77.2333 98.8966L75.6666 102.977C75.5229 103.346 75.2846 103.671 74.9757 103.919C74.6668 104.167 74.2981 104.329 73.9066 104.39L69.5733 105.057C69.4608 105.073 69.347 105.08 69.2333 105.077V105.077ZM66.5866 99.41L69.2533 102.743L73.4866 102.097L75.04 98.0966L72.3733 94.7633L68.14 95.4133L66.5866 99.41Z" fill="#E0E0E0"/>
<path d="M80.2933 75.2H77.7166C77.4096 75.2009 77.1077 75.1214 76.841 74.9694C76.5743 74.8173 76.3521 74.598 76.1966 74.3333L74.9066 72.1033C74.7544 71.8356 74.6743 71.533 74.6743 71.225C74.6743 70.917 74.7544 70.6144 74.9066 70.3467L76.1966 68.1167C76.3506 67.8499 76.5722 67.6284 76.8391 67.4745C77.1059 67.3206 77.4086 67.2397 77.7166 67.24H80.2933C80.6013 67.2397 80.904 67.3206 81.1708 67.4745C81.4377 67.6284 81.6593 67.8499 81.8133 68.1167L83.1033 70.3333C83.2555 70.601 83.3356 70.9037 83.3356 71.2117C83.3356 71.5196 83.2555 71.8223 83.1033 72.09L81.8133 74.3333C81.6575 74.5978 81.4352 74.8169 81.1686 74.9689C80.902 75.121 80.6002 75.2006 80.2933 75.2V75.2ZM77.7166 68.56C77.6425 68.5601 77.5697 68.5796 77.5055 68.6164C77.4412 68.6532 77.3876 68.7062 77.3499 68.77L76.0633 71C76.0258 71.0642 76.006 71.1373 76.006 71.2117C76.006 71.286 76.0258 71.3591 76.0633 71.4233L77.3499 73.6667C77.3874 73.7309 77.4409 73.7843 77.5051 73.8217C77.5694 73.8591 77.6423 73.8792 77.7166 73.88H80.2933C80.3688 73.8803 80.443 73.8608 80.5085 73.8233C80.5741 73.7859 80.6286 73.7319 80.6666 73.6667L81.9533 71.4367C81.9908 71.3724 82.0105 71.2994 82.0105 71.225C82.0105 71.1506 81.9908 71.0776 81.9533 71.0133L80.6666 68.77C80.629 68.7062 80.5754 68.6532 80.5111 68.6164C80.4468 68.5796 80.374 68.5601 80.2999 68.56H77.7166Z" fill="#EBEBEB"/>
<path d="M124.26 49.9833L119.233 46.82L113.063 36.4067L104.48 31.1533L102.82 32.95L103.69 34.1233L106.4 37.7567L117.157 52.1966L121.543 54.61L124.26 49.9833Z" fill="#EBEBEB"/>
<path d="M117.943 57.47L116.503 52.6766L100.697 34.6166L98.59 35.8633L101.927 45.36L111.103 54.3733L113.16 60L117.943 57.47Z" fill="#EBEBEB"/>
<path d="M126.507 50.8766C126.507 50.8766 144.357 60.6733 147.953 63.98C151.55 67.2866 159.953 81.0566 159.1 82.8166C158.247 84.5766 157.593 84.8166 155.657 83.11C153.72 81.4033 147.46 71.97 145.78 70.4433C144.1 68.9166 123.187 56.6666 123.187 56.6666L126.507 50.8766Z" fill="#E0E0E0"/>
<path d="M114.403 55.0733C117.526 55.0733 120.057 52.5422 120.057 49.42C120.057 46.2977 117.526 43.7667 114.403 43.7667C111.281 43.7667 108.75 46.2977 108.75 49.42C108.75 52.5422 111.281 55.0733 114.403 55.0733Z" fill="#EBEBEB"/>
<path d="M113 54.89C113.455 54.9757 113.917 55.0236 114.38 55.0333C114.922 55.0352 115.462 54.9554 115.98 54.7967C117.228 54.4315 118.31 53.6432 119.04 52.5671C119.77 51.4911 120.102 50.1945 119.98 48.9C119.923 48.3597 119.784 47.8313 119.567 47.3333C119.464 47.0777 119.343 46.8293 119.207 46.59C119.06 46.3483 118.897 46.1177 118.717 45.9C117.973 44.9774 116.953 44.3176 115.806 44.0176C114.66 43.7177 113.447 43.7933 112.347 44.2333C112.086 44.3382 111.832 44.4596 111.587 44.5967C111.354 44.7407 111.131 44.8999 110.92 45.0733C110.498 45.4056 110.13 45.8014 109.83 46.2467C109.263 47.0677 108.926 48.0251 108.853 49.02C108.799 49.8104 108.912 50.6032 109.185 51.347C109.458 52.0908 109.884 52.7687 110.437 53.3367C110.812 53.7325 111.244 54.0696 111.72 54.3367C112.13 54.5527 112.557 54.7356 112.997 54.8833C112.967 54.8871 112.937 54.8871 112.907 54.8833L112.647 54.81C112.505 54.7741 112.367 54.7261 112.233 54.6667C112.046 54.5958 111.865 54.5111 111.69 54.4133C111.197 54.159 110.748 53.8295 110.357 53.4367C109.783 52.8641 109.337 52.1759 109.05 51.4178C108.762 50.6598 108.64 49.8492 108.69 49.04C108.762 48.0166 109.108 47.0313 109.69 46.1867C109.999 45.7275 110.377 45.3183 110.81 44.9733C111.254 44.6045 111.755 44.3106 112.293 44.1033C113.426 43.649 114.675 43.5696 115.856 43.8768C117.037 44.1839 118.089 44.8614 118.857 45.81C119.039 46.0361 119.206 46.2745 119.357 46.5233C119.498 46.7709 119.622 47.0282 119.727 47.2933C119.939 47.8031 120.069 48.343 120.113 48.8933C120.205 49.8469 120.053 50.8081 119.673 51.6871C119.292 52.5662 118.695 53.3344 117.937 53.92C117.36 54.3701 116.701 54.703 115.997 54.9C115.469 55.0545 114.92 55.1254 114.37 55.11C114.169 55.1108 113.969 55.0963 113.77 55.0667C113.623 55.0564 113.477 55.0341 113.333 55L113.07 54.9367C113.045 54.9244 113.021 54.9087 113 54.89V54.89Z" fill="#E0E0E0"/>
<path d="M113.603 52.51C112.992 52.3518 112.441 52.0156 112.02 51.5441C111.599 51.0727 111.328 50.487 111.241 49.8613C111.153 49.2356 111.253 48.598 111.528 48.0291C111.803 47.4602 112.24 46.9857 112.785 46.6655C113.329 46.3453 113.957 46.1939 114.588 46.2304C115.218 46.267 115.824 46.4898 116.328 46.8707C116.832 47.2515 117.212 47.7734 117.419 48.3702C117.627 48.967 117.653 49.6119 117.493 50.2233C117.28 51.042 116.751 51.7426 116.021 52.1714C115.292 52.6001 114.422 52.7219 113.603 52.51Z" fill="#E0E0E0"/>
<path d="M113.603 52.51C113.603 52.4866 113.88 52.5766 114.38 52.5766C114.978 52.5712 115.563 52.3968 116.067 52.0737C116.57 51.7505 116.972 51.2917 117.227 50.75C117.46 50.2438 117.554 49.6847 117.5 49.13C117.439 48.5186 117.199 47.9387 116.81 47.4633C116.394 46.9497 115.825 46.5829 115.185 46.4167C114.546 46.2505 113.87 46.2937 113.257 46.54C112.966 46.6484 112.694 46.8038 112.453 47C112.216 47.1889 112.011 47.4139 111.843 47.6666C111.527 48.1246 111.337 48.6582 111.293 49.2133C111.257 49.6979 111.334 50.1843 111.52 50.6333C111.789 51.2922 112.271 51.8416 112.89 52.1933C113.121 52.3182 113.359 52.4295 113.603 52.5266C113.342 52.4807 113.089 52.3917 112.857 52.2633C112.206 51.9231 111.694 51.3684 111.407 50.6933C111.205 50.2272 111.117 49.72 111.15 49.2133C111.188 48.6297 111.381 48.0669 111.71 47.5833C111.881 47.3175 112.091 47.0792 112.333 46.8766C112.587 46.6668 112.873 46.4992 113.18 46.38C113.827 46.1182 114.541 46.0715 115.216 46.2468C115.891 46.4221 116.492 46.81 116.93 47.3533C117.345 47.8539 117.601 48.4666 117.667 49.1133C117.719 49.6958 117.614 50.2816 117.363 50.81C117.145 51.2675 116.822 51.6672 116.42 51.9766C115.839 52.4263 115.121 52.6618 114.387 52.6433C114.12 52.6431 113.855 52.598 113.603 52.51V52.51Z" fill="#E0E0E0"/>
<path d="M123.025 49.794L120.715 53.8143C120.038 54.9923 120.445 56.496 121.623 57.1728L121.839 57.2973C123.017 57.9742 124.521 57.5679 125.198 56.3899L127.508 52.3696C128.185 51.1916 127.778 49.6879 126.6 49.011L126.384 48.8865C125.206 48.2097 123.702 48.6159 123.025 49.794Z" fill="#EBEBEB"/>
<path d="M120.713 53.8166C120.575 54.1134 120.482 54.4291 120.437 54.7533C120.402 55.1343 120.453 55.5181 120.587 55.8766C120.669 56.0973 120.782 56.3059 120.92 56.4966C121.083 56.706 121.279 56.8873 121.5 57.0333C121.743 57.197 122.005 57.3302 122.28 57.43C122.761 57.5929 123.282 57.5977 123.766 57.4436C124.25 57.2894 124.672 56.9845 124.97 56.5733C125.737 55.2966 126.547 53.8333 127.42 52.33C127.62 51.9736 127.725 51.5719 127.725 51.1633C127.725 50.7548 127.62 50.353 127.42 49.9966C127.243 49.6544 126.984 49.3612 126.667 49.1433C126.358 48.9267 126.011 48.7727 125.643 48.69C125.303 48.6209 124.951 48.6268 124.613 48.7074C124.276 48.788 123.959 48.9413 123.687 49.1566C123.163 49.5533 122.933 50.1566 122.627 50.6433L121.253 52.9766L120.873 53.6066C120.833 53.6824 120.785 53.7539 120.73 53.82C120.763 53.74 120.801 53.6621 120.843 53.5866C120.933 53.4266 121.05 53.21 121.197 52.9433C121.53 52.37 121.967 51.57 122.53 50.5866L122.97 49.8066C123.132 49.5153 123.348 49.2574 123.607 49.0466C123.892 48.8169 124.225 48.6521 124.58 48.5634C124.936 48.4748 125.307 48.4645 125.667 48.5333C126.051 48.6174 126.416 48.7759 126.74 49C127.095 49.222 127.387 49.5306 127.59 49.8966C127.808 50.2796 127.923 50.7127 127.923 51.1533C127.923 51.594 127.808 52.027 127.59 52.41C126.713 53.92 125.923 55.36 125.12 56.6633C124.899 56.9593 124.616 57.204 124.292 57.3806C123.967 57.5572 123.609 57.6616 123.24 57.6866C122.907 57.7058 122.573 57.6606 122.257 57.5533C121.973 57.4443 121.703 57.301 121.453 57.1266C121.222 56.9711 121.018 56.7785 120.85 56.5566C120.709 56.3505 120.597 56.1263 120.517 55.89C120.405 55.5878 120.355 55.2663 120.37 54.9445C120.385 54.6227 120.464 54.3072 120.603 54.0166C120.634 53.947 120.671 53.8801 120.713 53.8166V53.8166Z" fill="#E0E0E0"/>
<path d="M113.823 62.8467C113.823 62.8467 120.587 82.0533 123.267 86.14C125.947 90.2267 138.163 100.753 140.037 100.2C141.91 99.6467 142.24 99.0367 140.887 96.8667C139.533 94.6967 131.22 86.97 129.993 85.06C128.767 83.15 120.057 60.5267 120.057 60.5267L113.823 62.8467Z" fill="#E0E0E0"/>
<path d="M117.665 57.6135L113.322 59.2388C112.05 59.7151 111.405 61.1326 111.881 62.4051L111.968 62.6392C112.445 63.9116 113.862 64.557 115.135 64.0808L119.477 62.4555C120.75 61.9792 121.395 60.5617 120.919 59.2893L120.831 59.0551C120.355 57.7827 118.937 57.1373 117.665 57.6135Z" fill="#EBEBEB"/>
<path d="M117.667 57.61C117.743 57.5702 117.823 57.5389 117.907 57.5166C118.146 57.4484 118.394 57.4169 118.643 57.4233C119.038 57.4364 119.424 57.5427 119.77 57.7333C119.985 57.8566 120.182 58.0079 120.357 58.1833C120.547 58.3864 120.705 58.6181 120.823 58.87C120.955 59.1445 121.051 59.4346 121.11 59.7333C121.168 60.065 121.159 60.4052 121.083 60.7333C120.997 61.0945 120.833 61.4325 120.603 61.7238C120.373 62.0151 120.082 62.2527 119.75 62.42C118.337 62.99 116.787 63.5466 115.153 64.1666C114.74 64.319 114.294 64.3623 113.859 64.2922C113.424 64.2221 113.015 64.0411 112.67 63.7666C112.342 63.5008 112.085 63.157 111.923 62.7666C111.753 62.4072 111.655 62.0174 111.637 61.62C111.624 61.2507 111.693 60.8832 111.838 60.5434C111.983 60.2036 112.201 59.8998 112.477 59.6533C112.727 59.4331 113.016 59.2623 113.33 59.15L114.17 58.84L116.71 57.92L117.403 57.6766C117.483 57.6447 117.566 57.6201 117.65 57.6033C117.577 57.6478 117.498 57.6836 117.417 57.71L116.75 57.9833L114.23 58.9566C113.707 59.18 113.067 59.31 112.59 59.76C112.333 59.9946 112.131 60.2821 111.996 60.6027C111.861 60.9232 111.798 61.2692 111.81 61.6166C111.834 61.9926 111.93 62.3604 112.093 62.7C112.246 63.0605 112.487 63.3769 112.793 63.62C113.115 63.8759 113.497 64.0445 113.903 64.1093C114.309 64.1741 114.725 64.133 115.11 63.99C116.733 63.3733 118.31 62.81 119.697 62.2633C120.149 62.034 120.517 61.6672 120.747 61.2156C120.978 60.7639 121.059 60.2508 120.98 59.75C120.925 59.461 120.834 59.18 120.71 58.9133C120.602 58.6693 120.456 58.4442 120.277 58.2466C120.113 58.0752 119.927 57.9271 119.723 57.8066C119.393 57.6135 119.022 57.4994 118.64 57.4733C118.31 57.4689 117.982 57.515 117.667 57.61V57.61Z" fill="#E0E0E0"/>
<path d="M288.253 168.157C288.253 168.203 237.44 168.243 174.773 168.243C112.107 168.243 61.2833 168.203 61.2833 168.157C61.2833 168.11 112.087 168.07 174.773 168.07C237.46 168.07 288.253 168.11 288.253 168.157Z" fill="#263238"/>
<path d="M79 130.023C79.09 129.743 89.4767 95.79 89.4767 95.79L89.2167 91.5733L91.9333 87.1L95.3067 88.2167L94.8467 93.2167L92.4467 96.8633L82 131L79 130.023Z" fill="#E0E0E0"/>
<path d="M79 130.023L79.2 130.08L79.7767 130.26L82 130.957L81.9633 130.977C83.6533 125.44 87.56 112.627 92.3733 96.85L94.77 93.2067V93.2433C94.9167 91.6467 95.0733 89.95 95.23 88.2433L95.29 88.3333L95.01 88.2433L91.9167 87.22L92.0167 87.1833L89.3 91.6567V91.6067C89.3867 93.0444 89.4722 94.45 89.5567 95.8233V95.8533C86.52 105.717 83.89 114.26 82.02 120.34C81.08 123.383 80.3267 125.807 79.81 127.477C79.5533 128.31 79.35 128.953 79.2133 129.393L79.0567 129.89L79 130.06C79.0113 130.005 79.0258 129.95 79.0433 129.897C79.0767 129.78 79.1233 129.617 79.1867 129.407C79.32 128.967 79.52 128.327 79.76 127.5C80.2633 125.833 80.9967 123.407 81.9167 120.367C83.7767 114.267 86.3833 105.7 89.3967 95.8033V95.8333C89.31 94.46 89.2222 93.0544 89.1333 91.6167V91.59V91.5667L91.85 87.0933L91.8833 87.0333L91.95 87.0567L95.0467 88.0767L95.3233 88.17L95.39 88.19V88.26C95.2333 89.9767 95.0767 91.6733 94.9267 93.26V93.2833V93.3L92.53 96.9467V96.9233C87.6667 112.667 83.7267 125.463 82.02 131V131.03H81.99L79.7633 130.293L79.2 130.103L79 130.023Z" fill="#263238"/>
<path d="M76.4966 131.667L71.83 137.973L65.3066 161.64C65.3066 161.64 64.37 166.467 69.7 167.837C75.7 169.377 77.0666 164.79 77.0666 164.79L83.4 141.68L83.3333 133.667L84.8966 131.903C84.9673 131.821 85.0169 131.723 85.0411 131.617C85.0653 131.512 85.0633 131.402 85.0354 131.297C85.0075 131.192 84.9545 131.096 84.8809 131.016C84.8074 130.937 84.7155 130.876 84.6133 130.84L77.12 128.367C77.0158 128.334 76.9053 128.328 76.798 128.348C76.6908 128.368 76.5902 128.414 76.5049 128.482C76.4197 128.55 76.3525 128.638 76.3092 128.738C76.2659 128.839 76.2479 128.948 76.2566 129.057L76.4966 131.667Z" fill="#57D163"/>
<path d="M83.3733 133.943C83.3566 133.99 81.7866 133.533 79.8666 132.923C77.9466 132.313 76.3966 131.78 76.4133 131.733C76.4299 131.687 77.9966 132.147 79.9199 132.757C81.8433 133.367 83.3866 133.897 83.3733 133.943Z" fill="#263238"/>
<path d="M83.4133 141.683C83.2554 141.673 83.0989 141.647 82.9467 141.603C82.6467 141.54 82.22 141.437 81.69 141.303C80.63 141.04 79.1767 140.637 77.5933 140.13C76.01 139.623 74.5933 139.11 73.57 138.713C73.0633 138.513 72.6533 138.347 72.3733 138.227C72.2247 138.173 72.0818 138.105 71.9467 138.023C72.102 138.055 72.2538 138.102 72.4 138.163L73.6133 138.597C74.64 138.963 76.06 139.46 77.6433 139.963C79.2267 140.467 80.6733 140.89 81.72 141.187L82.9633 141.537C83.1175 141.572 83.2681 141.621 83.4133 141.683V141.683Z" fill="#263238"/>
<g opacity="0.3">
<path d="M74.6401 140.482L74.4769 140.435C73.8937 140.265 73.283 140.6 73.1129 141.183L67.3365 160.988C67.1664 161.571 67.5013 162.181 68.0845 162.352L68.2477 162.399C68.8309 162.569 69.4416 162.234 69.6117 161.651L75.3881 141.846C75.5582 141.263 75.2233 140.652 74.6401 140.482Z" fill="black"/>
</g>
<g opacity="0.3">
<path d="M77.9842 141.567L77.821 141.519C77.2378 141.349 76.6271 141.684 76.457 142.267L70.6806 162.072C70.5105 162.655 70.8454 163.266 71.4286 163.436L71.5918 163.484C72.175 163.654 72.7857 163.319 72.9558 162.736L78.7322 142.931C78.9023 142.348 78.5674 141.737 77.9842 141.567Z" fill="black"/>
</g>
<g opacity="0.3">
<path d="M81.0008 142.564L80.8378 142.516C80.2553 142.344 79.6432 142.676 79.4708 143.259L73.615 163.04C73.4426 163.623 73.775 164.235 74.3575 164.407L74.5205 164.455C75.1031 164.628 75.7151 164.295 75.8875 163.713L81.7433 143.931C81.9157 143.349 81.5833 142.737 81.0008 142.564Z" fill="black"/>
</g>
<path d="M92.4233 96.8667C91.9135 96.7812 91.4149 96.6392 90.9366 96.4433C90.44 96.3036 89.9612 96.1068 89.5099 95.8567C90.0181 95.9443 90.5154 96.0862 90.9933 96.28C91.4908 96.4202 91.9706 96.617 92.4233 96.8667Z" fill="#263238"/>
<path d="M95.3133 88.2166C95.2884 88.3754 95.2493 88.5315 95.1967 88.6833C95.1 89.0167 94.9733 89.4366 94.8167 89.9566L93.4833 94.29L93.4567 94.3733L93.3733 94.3466L91.8367 93.81L90.2567 93.2567L90.18 93.23L90.2033 93.1533C90.6833 91.44 91.1067 89.9367 91.42 88.82C91.5733 88.3033 91.6967 87.8767 91.7933 87.5567C91.8325 87.4018 91.8838 87.2502 91.9467 87.1033C91.9284 87.2625 91.8961 87.4198 91.85 87.5733L91.5167 88.85C91.22 89.96 90.82 91.4667 90.36 93.1833L90.3067 93.08L91.89 93.6333L93.4233 94.17L93.3133 94.2266L94.7133 89.9233C94.8867 89.4067 95.0467 88.9867 95.14 88.6667C95.185 88.512 95.243 88.3615 95.3133 88.2166V88.2166Z" fill="#263238"/>
<path d="M193.633 54.3067C193.364 54.3071 193.097 54.262 192.843 54.1733L188.76 52.76C188.359 52.6199 188.002 52.3772 187.724 52.0561C187.446 51.735 187.258 51.3468 187.177 50.93L186.36 46.6867C186.28 46.2694 186.311 45.8384 186.45 45.437C186.589 45.0356 186.832 44.678 187.153 44.4L190.42 41.5733C190.742 41.2959 191.13 41.1077 191.547 41.0276C191.964 40.9474 192.395 40.9782 192.797 41.1167L196.877 42.53C197.278 42.6696 197.636 42.9121 197.914 43.2332C198.193 43.5543 198.382 43.9429 198.463 44.36L199.28 48.6033C199.358 49.0206 199.326 49.451 199.187 49.8521C199.048 50.2532 198.807 50.611 198.487 50.89L195.22 53.7167C194.779 54.0974 194.216 54.3068 193.633 54.3067ZM189.767 50.2867L193.583 51.62L196.633 48.98L195.87 45L192.057 43.6667L189 46.3333L189.767 50.2867Z" fill="#E0E0E0"/>
<path d="M189.767 50.2866C189.739 50.2004 189.717 50.1124 189.7 50.0233L189.533 49.24C189.39 48.5366 189.2 47.5466 188.943 46.3366C188.941 46.3253 188.941 46.3134 188.945 46.3023C188.948 46.2912 188.955 46.2812 188.963 46.2733L192.003 43.6066C192.016 43.6002 192.029 43.5969 192.043 43.5969C192.057 43.5969 192.071 43.6002 192.083 43.6066L195.897 44.94L195.957 45.0066V45.0633V45.13L195.983 45.26L196.033 45.52C196.067 45.69 196.097 45.8533 196.13 46.0333C196.197 46.3666 196.26 46.7 196.323 47.0333C196.45 47.7 196.573 48.34 196.69 48.9566C196.693 48.9706 196.692 48.9851 196.687 48.9986C196.682 49.0121 196.674 49.0241 196.663 49.0333L193.623 51.6666C193.614 51.6722 193.603 51.6751 193.592 51.6751C193.581 51.6751 193.57 51.6722 193.56 51.6666L190.77 50.6666L190.02 50.3866C189.933 50.3584 189.848 50.3238 189.767 50.2833C189.862 50.3032 189.955 50.33 190.047 50.3633L190.817 50.61L193.603 51.5433H193.54L196.58 48.8766L196.553 48.9566C196.433 48.3366 196.307 47.6966 196.18 47.0333C196.117 46.7 196.05 46.3666 195.983 46.0333C195.95 45.8633 195.92 45.7 195.887 45.52L195.837 45.26L195.81 45.13V45.0633V45.03V45.0066C195.81 45.0066 195.917 45.13 195.863 45.07L192.053 43.7366H192.133L189.07 46.3666L189.093 46.3033C189.31 47.51 189.49 48.4933 189.617 49.1966C189.673 49.53 189.72 49.7933 189.753 49.9933C189.767 50.0905 189.771 50.1887 189.767 50.2866V50.2866Z" fill="#263238"/>
<path d="M193.633 54.3066C193.633 54.3066 193.777 54.3066 194.047 54.2533C194.436 54.1792 194.801 54.011 195.11 53.7633L198.427 50.86C198.79 50.5467 199.049 50.1305 199.17 49.6666C199.235 49.4223 199.262 49.1693 199.25 48.9166C199.22 48.6532 199.176 48.3917 199.117 48.1333C198.907 47.0566 198.683 45.91 198.45 44.7033C198.409 44.4015 198.327 44.1066 198.207 43.8266C198.077 43.5442 197.892 43.2905 197.663 43.0805C197.434 42.8704 197.166 42.7082 196.873 42.6033L195.933 42.27L194.003 41.6033L193.003 41.27C192.686 41.1366 192.347 41.0654 192.003 41.06C191.658 41.0596 191.317 41.1347 191.003 41.28C190.699 41.4327 190.42 41.6317 190.177 41.87L188.633 43.2033L187.143 44.4933C186.69 44.9089 186.417 45.4857 186.383 46.1C186.378 46.3975 186.412 46.6944 186.483 46.9833C186.54 47.28 186.593 47.57 186.65 47.8566C186.757 48.43 186.863 48.9833 186.963 49.5233C187.063 50.0633 187.16 50.5833 187.263 51.07C187.388 51.5314 187.648 51.9449 188.01 52.2566C188.178 52.4004 188.366 52.5204 188.567 52.6133C188.763 52.7 188.973 52.7633 189.167 52.8366L190.283 53.23L192.07 53.8633C192.439 54.0125 192.818 54.1383 193.203 54.24C193.47 54.29 193.617 54.2866 193.617 54.2933C193.477 54.3102 193.336 54.3102 193.197 54.2933C192.807 54.2036 192.424 54.0866 192.05 53.9433L190.27 53.3333L189.15 52.9533C188.95 52.8833 188.747 52.8233 188.537 52.7333C188.324 52.6374 188.126 52.5129 187.947 52.3633C187.562 52.0384 187.284 51.6051 187.15 51.12C187.037 50.6133 186.947 50.1 186.84 49.5633C186.733 49.0266 186.627 48.47 186.507 47.8966C186.449 47.6144 186.392 47.3244 186.337 47.0266C186.261 46.7259 186.226 46.4166 186.23 46.1066C186.265 45.4485 186.555 44.8299 187.04 44.3833L188.527 43.09L190.07 41.7566C190.203 41.6433 190.327 41.53 190.47 41.4233C190.616 41.3148 190.772 41.221 190.937 41.1433C191.269 40.9892 191.631 40.9095 191.997 40.91C192.36 40.9157 192.718 40.9903 193.053 41.13L194.053 41.4633L195.983 42.13L196.923 42.4633C197.241 42.5765 197.532 42.7522 197.78 42.98C198.023 43.2033 198.219 43.473 198.357 43.7733C198.483 44.0659 198.568 44.3743 198.61 44.69C198.832 45.9011 199.049 47.0455 199.26 48.1233C199.32 48.3881 199.363 48.6564 199.39 48.9266C199.409 49.3104 199.34 49.6934 199.187 50.046C199.035 50.3986 198.803 50.7113 198.51 50.96L195.157 53.8233C194.834 54.0699 194.455 54.2325 194.053 54.2966C193.914 54.3172 193.773 54.3205 193.633 54.3066V54.3066Z" fill="#263238"/>
<path d="M165.223 47.3667C164.959 47.366 164.698 47.3057 164.46 47.1903C164.223 47.0749 164.014 46.9073 163.85 46.7L162.687 45.25C162.495 45.0089 162.369 44.7218 162.322 44.4172C162.275 44.1125 162.309 43.8009 162.42 43.5133L163.087 41.78C163.199 41.4931 163.384 41.2408 163.625 41.0483C163.865 40.8559 164.152 40.73 164.457 40.6833L166.293 40.4C166.598 40.3539 166.909 40.3884 167.197 40.5001C167.484 40.6118 167.737 40.7968 167.93 41.0367L169.093 42.49C169.285 42.7304 169.411 43.0169 169.458 43.3211C169.505 43.6252 169.471 43.9363 169.36 44.2233L168.693 45.96C168.583 46.247 168.399 46.5002 168.161 46.6943C167.922 46.8885 167.637 47.0168 167.333 47.0667L165.493 47.3467C165.404 47.3602 165.314 47.3668 165.223 47.3667V47.3667ZM166.557 41.7233H166.493L164.667 42C164.593 42.011 164.523 42.041 164.465 42.0872C164.406 42.1334 164.361 42.1941 164.333 42.2633L163.667 44C163.64 44.069 163.632 44.1437 163.643 44.2167C163.654 44.2897 163.684 44.3586 163.73 44.4167L164.893 45.8667C164.94 45.9241 165.001 45.9685 165.07 45.9954C165.139 46.0223 165.213 46.0307 165.287 46.02L167.127 45.7367C167.2 45.726 167.27 45.6961 167.329 45.6498C167.387 45.6036 167.433 45.5427 167.46 45.4733L168.127 43.74C168.154 43.6711 168.162 43.5963 168.151 43.5231C168.14 43.45 168.11 43.381 168.063 43.3233L166.9 41.8733C166.859 41.8256 166.809 41.7875 166.752 41.7615C166.695 41.7356 166.633 41.7226 166.57 41.7233H166.557Z" fill="#E0E0E0"/>
<path d="M166.57 41.7233C166.617 41.7087 166.667 41.7087 166.713 41.7233C166.771 41.739 166.825 41.7675 166.87 41.8067C166.927 41.8626 166.98 41.9215 167.03 41.9833L167.977 43.12L168.13 43.31C168.188 43.3884 168.22 43.4826 168.223 43.58C168.221 43.6759 168.199 43.7703 168.157 43.8567C168.127 43.94 168.093 44.0233 168.063 44.11C167.93 44.4433 167.79 44.82 167.643 45.2067C167.607 45.3033 167.57 45.4 167.53 45.5C167.486 45.6204 167.398 45.7194 167.283 45.7767C167.176 45.8166 167.064 45.8424 166.95 45.8533L166.617 45.9067C166.167 45.9733 165.727 46.05 165.227 46.1133C165.155 46.1135 165.084 46.0985 165.018 46.0692C164.953 46.0398 164.894 45.997 164.847 45.9433L164.627 45.6667L164.197 45.1333L163.787 44.6133L163.683 44.4867C163.644 44.4399 163.612 44.387 163.59 44.33C163.545 44.2119 163.545 44.0814 163.59 43.9633L164.023 42.8733L164.22 42.38C164.249 42.296 164.287 42.2155 164.333 42.14C164.387 42.0648 164.461 42.0069 164.547 41.9733C165.187 41.8567 165.673 41.81 166.023 41.7633C166.202 41.7283 166.384 41.7126 166.567 41.7167C166.523 41.733 166.477 41.7442 166.43 41.75L166.037 41.83C165.703 41.8967 165.177 41.97 164.593 42.0867C164.531 42.1142 164.477 42.1579 164.437 42.2133C164.399 42.2827 164.368 42.3552 164.343 42.43L164.157 42.9267L163.737 44.0233C163.707 44.1039 163.707 44.1927 163.737 44.2733C163.783 44.3592 163.84 44.4387 163.907 44.51L164.333 45.0333L164.763 45.5667L164.98 45.8367C165.012 45.8716 165.05 45.8995 165.093 45.9184C165.136 45.9374 165.183 45.947 165.23 45.9467L166.593 45.7433L166.927 45.6933C167.028 45.687 167.128 45.6668 167.223 45.6333C167.302 45.5958 167.363 45.5288 167.393 45.4467C167.43 45.3467 167.47 45.25 167.507 45.1533C167.66 44.7733 167.803 44.4067 167.94 44.0633C167.978 43.9811 168.011 43.8978 168.04 43.8133C168.076 43.744 168.098 43.668 168.103 43.59C168.1 43.5189 168.078 43.45 168.04 43.39L167.893 43.2033L166.99 42.0333C166.95 41.9516 166.891 41.8807 166.818 41.8267C166.745 41.7728 166.66 41.7373 166.57 41.7233V41.7233Z" fill="#263238"/>
<path d="M165.223 47.3667C165.296 47.3502 165.369 47.3391 165.443 47.3333L166.08 47.2233L167.08 47.0533C167.288 47.0306 167.492 46.9813 167.687 46.9067C167.9 46.8185 168.093 46.6868 168.253 46.52C168.437 46.3374 168.578 46.1166 168.667 45.8733C168.763 45.62 168.867 45.3533 168.97 45.0767C169.153 44.52 169.527 43.95 169.39 43.3133C169.331 42.9905 169.183 42.6904 168.963 42.4467L168.297 41.62L167.963 41.1933C167.857 41.0499 167.732 40.922 167.59 40.8133C167.302 40.597 166.951 40.48 166.59 40.48C166.404 40.4868 166.219 40.508 166.037 40.5433L165.48 40.6267L164.397 40.7967C164.064 40.8688 163.762 41.0409 163.53 41.29C163.418 41.4094 163.324 41.5441 163.25 41.69C163.18 41.8333 163.123 42 163.063 42.15L162.707 43.0533C162.582 43.3257 162.484 43.6091 162.413 43.9C162.374 44.1626 162.395 44.4306 162.474 44.6841C162.553 44.9376 162.688 45.1698 162.87 45.3633L163.707 46.43C163.833 46.5833 163.937 46.7367 164.057 46.8533C164.165 46.96 164.287 47.052 164.42 47.1267C164.675 47.262 164.955 47.3437 165.243 47.3667C165.243 47.3667 165.223 47.3667 165.183 47.3667C165.143 47.3667 165.09 47.3667 165.017 47.3667C164.798 47.3469 164.585 47.2846 164.39 47.1833C164.249 47.1086 164.118 47.0168 164 46.91C163.869 46.7755 163.746 46.6342 163.63 46.4867L162.773 45.4367C162.577 45.2315 162.43 44.9845 162.344 44.7142C162.257 44.444 162.233 44.1576 162.273 43.8767C162.34 43.5732 162.437 43.2773 162.563 42.9933L162.913 42.09C162.977 41.9333 163.027 41.78 163.103 41.6167C163.183 41.4553 163.285 41.306 163.407 41.1733C163.656 40.9053 163.978 40.7164 164.333 40.63C164.7 40.5667 165.057 40.5167 165.427 40.4567L165.983 40.3733C166.174 40.335 166.368 40.3127 166.563 40.3067C166.961 40.303 167.348 40.4295 167.667 40.6667C167.82 40.7836 167.956 40.9216 168.07 41.0767L168.403 41.5033C168.63 41.7833 168.85 42.0633 169.07 42.3333C169.308 42.5986 169.466 42.9256 169.527 43.2767C169.586 43.6134 169.549 43.96 169.42 44.2767C169.307 44.5667 169.193 44.85 169.087 45.1267C168.98 45.4033 168.873 45.6633 168.773 45.92C168.68 46.1707 168.533 46.3981 168.343 46.5867C168.005 46.9117 167.562 47.1045 167.093 47.13L166.093 47.27C165.817 47.3067 165.6 47.3367 165.453 47.3467C165.378 47.3624 165.301 47.3691 165.223 47.3667V47.3667Z" fill="#263238"/>
<path d="M197.697 43.0167C197.462 43.4202 197.173 43.7892 196.837 44.1133C196.541 44.4782 196.186 44.7904 195.787 45.0367C196.068 44.6681 196.376 44.3215 196.71 44C197.001 43.636 197.332 43.3061 197.697 43.0167V43.0167Z" fill="#263238"/>
<path d="M191.447 41.1C191.664 41.492 191.814 41.918 191.89 42.36C192.025 42.791 192.085 43.242 192.067 43.6933C191.917 43.2753 191.806 42.8446 191.733 42.4066C191.598 41.9808 191.502 41.5434 191.447 41.1V41.1Z" fill="#263238"/>
<path d="M188.96 46.2567C188.524 46.1708 188.096 46.0482 187.68 45.89C187.247 45.7838 186.824 45.6434 186.413 45.47C187.31 45.5424 188.179 45.8109 188.96 46.2567V46.2567Z" fill="#263238"/>
<path d="M188.25 52.04C188.425 51.6914 188.649 51.3702 188.917 51.0866C189.146 50.7691 189.42 50.4862 189.73 50.2466C189.558 50.5965 189.333 50.918 189.063 51.2C188.834 51.5175 188.56 51.8004 188.25 52.04V52.04Z" fill="#263238"/>
<path d="M193.863 53.8633C193.729 53.5202 193.65 53.1579 193.63 52.79C193.55 52.4291 193.528 52.0577 193.567 51.69C193.7 52.0347 193.778 52.3979 193.8 52.7667C193.878 53.1267 193.9 53.4967 193.863 53.8633Z" fill="#263238"/>
<path d="M198.607 49.5933C198.265 49.5534 197.933 49.4565 197.623 49.3067C197.292 49.2119 196.98 49.0608 196.7 48.86C197.372 48.9964 198.017 49.2442 198.607 49.5933V49.5933Z" fill="#263238"/>
<path d="M264.78 75.1533C267.037 72.4333 269.293 69.6866 271.053 66.62C272.813 63.5533 274.053 60.1266 274.143 56.5933C274.143 56.0566 273.927 52.34 273.41 52.19C273.043 52.0833 272.79 55.3666 272.49 55.6033C269.61 57.8566 267.74 61.2 266.663 64.6933C265.65 68.0994 265.018 71.6076 264.78 75.1533" fill="#263238"/>
<path d="M235.383 95.8266C236.283 93.4933 240.717 81.8266 240.693 81.8266C240.67 81.8266 233.057 77.8533 235.693 69.76C236.96 65.85 240.223 58.0133 243.257 50.9533C244.831 47.2955 247.725 44.3645 251.362 42.7432C255 41.1218 259.114 40.9291 262.887 42.2033L263.663 42.4667C271.883 45.8 273.663 54.6233 270.107 62.7467L253.773 100.58L239.46 96.1566L235.383 95.8266Z" fill="#FFBF9D"/>
<path d="M240.697 81.8333C240.697 81.8333 245.673 83.8333 252.233 82.2733C252.233 82.2733 247.693 87.4033 239.9 83.9633L240.697 81.8333Z" fill="#FF9A6C"/>
<path d="M243.243 58.7433C243.139 59.0424 243.156 59.3701 243.29 59.657C243.424 59.944 243.664 60.1674 243.96 60.28C244.103 60.3408 244.256 60.3726 244.411 60.3735C244.566 60.3743 244.719 60.3442 244.862 60.2849C245.005 60.2256 245.135 60.1383 245.244 60.0281C245.353 59.9179 245.439 59.7871 245.497 59.6433C245.602 59.3443 245.585 59.0162 245.451 58.729C245.317 58.4419 245.076 58.2185 244.78 58.1066C244.638 58.0453 244.484 58.0132 244.329 58.0121C244.174 58.011 244.02 58.041 243.877 58.1004C243.734 58.1597 243.604 58.2472 243.495 58.3577C243.386 58.4681 243.301 58.5992 243.243 58.7433V58.7433Z" fill="#263238"/>
<path d="M243.837 54.8866C243.93 55.0866 245.02 54.7333 246.257 55.1566C247.493 55.58 248.193 56.49 248.377 56.3966C248.467 56.3533 248.413 56.0333 248.113 55.61C247.704 55.0579 247.133 54.6467 246.48 54.4333C245.833 54.21 245.132 54.2007 244.48 54.4066C244 54.57 243.79 54.7966 243.837 54.8866Z" fill="#263238"/>
<path d="M254.107 63.1133C254.002 63.4119 254.018 63.7395 254.152 64.0261C254.286 64.3128 254.527 64.5355 254.823 64.6467C254.966 64.708 255.119 64.7401 255.274 64.7412C255.429 64.7423 255.583 64.7123 255.726 64.6529C255.869 64.5936 255.999 64.5061 256.108 64.3956C256.217 64.2852 256.303 64.1541 256.36 64.01C256.464 63.711 256.447 63.3832 256.313 63.0963C256.18 62.8093 255.939 62.5859 255.643 62.4733C255.501 62.4125 255.347 62.3809 255.192 62.3803C255.037 62.3797 254.883 62.4101 254.74 62.4697C254.597 62.5293 254.467 62.617 254.358 62.7275C254.25 62.8381 254.164 62.9692 254.107 63.1133Z" fill="#263238"/>
<path d="M255.8 59.4833C255.89 59.6833 256.983 59.3333 258.22 59.7533C259.457 60.1733 260.153 61.0867 260.34 60.9967C260.427 60.95 260.377 60.63 260.077 60.21C259.666 59.657 259.094 59.2448 258.44 59.03C257.794 58.806 257.092 58.7966 256.44 59.0033C255.973 59.1667 255.753 59.3933 255.8 59.4833Z" fill="#263238"/>
<path d="M248.143 67.5C248.173 67.4333 247.447 67.04 246.253 66.46C245.95 66.32 245.67 66.1567 245.69 65.92C245.71 65.6833 245.94 65.37 246.217 65.0567L247.967 62.9633C250.423 59.9633 252.317 57.4733 252.193 57.3733C252.07 57.2733 249.983 59.62 247.527 62.61C246.93 63.35 246.357 64.0533 245.813 64.73C245.573 65.0633 245.23 65.3967 245.23 65.9167C245.239 66.0433 245.276 66.1663 245.339 66.2765C245.402 66.3868 245.489 66.4814 245.593 66.5533C245.753 66.6594 245.926 66.7455 246.107 66.81C247.333 67.3 248.113 67.57 248.143 67.5Z" fill="#263238"/>
<path d="M251.5 69.5866C251.3 69.51 250.833 70.8533 249.373 71.4166C247.913 71.98 246.517 71.3533 246.443 71.5366C246.397 71.6133 246.677 71.9033 247.273 72.1266C248.058 72.402 248.914 72.3937 249.693 72.1033C250.44 71.8214 251.048 71.261 251.39 70.54C251.63 70 251.593 69.61 251.5 69.5866Z" fill="#263238"/>
<path d="M257.563 54.4833C257.563 54.86 258.863 55.12 260.257 55.7833C261.65 56.4467 262.693 57.2433 262.987 57.0067C263.12 56.89 263.023 56.5033 262.653 56.0067C262.157 55.3927 261.527 54.9002 260.811 54.5669C260.095 54.2336 259.313 54.0682 258.523 54.0833C257.923 54.13 257.567 54.3067 257.563 54.4833Z" fill="#263238"/>
<path d="M245.74 50.9433C245.863 51.3 246.813 51.2767 247.843 51.61C248.873 51.9433 249.677 52.44 249.973 52.2133C250.11 52.1 250.07 51.7733 249.78 51.3767C249.377 50.8856 248.838 50.5251 248.231 50.3405C247.623 50.156 246.974 50.1558 246.367 50.34C245.907 50.5233 245.69 50.7733 245.74 50.9433Z" fill="#263238"/>
<path d="M267.42 68.5C267.58 68.5 273.51 68.73 271.477 74.1667C269.443 79.6033 264.387 76.45 264.437 76.29C264.487 76.13 267.42 68.5 267.42 68.5Z" fill="#FFBF9D"/>
<path d="M266.873 74.86C266.903 74.86 266.943 74.9633 267.077 75.0967C267.265 75.2785 267.518 75.3791 267.78 75.3767C268.447 75.3767 269.26 74.6467 269.653 73.6733C269.843 73.211 269.926 72.7121 269.897 72.2133C269.911 72.023 269.878 71.8322 269.8 71.6578C269.723 71.4834 269.604 71.3307 269.453 71.2133C269.355 71.1407 269.233 71.1057 269.111 71.1149C268.988 71.1241 268.873 71.1767 268.787 71.2633C268.657 71.39 268.65 71.51 268.62 71.51C268.59 71.51 268.537 71.3733 268.663 71.1767C268.743 71.0549 268.86 70.9624 268.997 70.9133C269.189 70.8564 269.396 70.8767 269.573 70.97C269.779 71.0995 269.947 71.2792 270.064 71.4921C270.181 71.7049 270.241 71.9439 270.24 72.1867C270.294 72.7458 270.212 73.3096 270 73.83C269.553 74.9133 268.61 75.7333 267.737 75.6667C267.574 75.6537 267.417 75.6048 267.275 75.5235C267.134 75.4422 267.013 75.3306 266.92 75.1967C266.833 75 266.85 74.8633 266.873 74.86Z" fill="#FF9A6C"/>
<path d="M250.213 43.31C249.52 42.49 253.25 40.6433 255.787 40.5033C259.62 40.2767 264.957 41.2767 267.637 43.2867C270.87 45.7033 273.187 48.6633 273.74 52.66C274.293 56.6567 273.503 60.7633 271.953 64.49C271.48 65.6267 270.9 66.7767 269.913 67.5133C268.697 68.4233 266.95 68.62 266.377 70.3033C266.282 70.6108 266.127 70.8963 265.921 71.1435C265.715 71.3907 265.462 71.5946 265.177 71.7433C263.777 72.41 262.943 70.96 262.767 69.7433C262.39 67.1567 263.23 64.5667 264.06 62.0767C264.65 60.3167 265.26 58.52 266.393 57.0433C267.007 56.24 267.76 55.55 268.33 54.71C268.9 53.87 269.27 52.82 268.997 51.85C268.927 51.6361 268.837 51.4295 268.727 51.2333C268.223 50.2822 267.475 49.4821 266.56 48.9151C265.645 48.3481 264.596 48.0345 263.52 48.0067C260.043 47.9167 254.187 47.5267 253.237 45.9667C251.847 43.72 251.75 42.5667 251.75 42.5667L250.213 43.31Z" fill="#263238"/>
<path d="M268.333 39.96C268.683 40.1366 276.873 45.1967 276.82 52.5767C276.767 59.9566 275.417 61.7633 275.417 61.7633C275.691 62.1016 275.916 62.4777 276.083 62.88C276.303 63.44 275.047 65.34 273.97 64.7066C266.617 57.8833 256.483 53.9633 244.923 50.3733L236.203 47.25C233.65 46.6933 233.013 45.7433 234.26 45.4866C235.217 45.2866 243.137 44.8867 243.137 44.8867L244.847 44.36L250.18 40.59C250.18 40.59 249.973 39.7366 251.057 39.46C252.14 39.1833 261.447 36.46 268.333 39.96Z" fill="#57D163"/>
<path d="M244.84 44.3733C244.84 44.3733 244.957 44.42 245.173 44.4933L246.173 44.8067C247.033 45.0633 248.257 45.4967 249.763 46.05C253.662 47.5503 257.422 49.3884 261 51.5433C264.576 53.7072 268.026 56.0733 271.333 58.63C272.613 59.6 273.63 60.4067 274.333 60.9633L275.15 61.6C275.337 61.7433 275.44 61.8133 275.44 61.8133C275.44 61.8133 275.35 61.7267 275.167 61.5733L274.37 60.9067C273.673 60.34 272.663 59.52 271.393 58.54C268.098 55.9532 264.647 53.5709 261.06 51.4067C257.471 49.2438 253.69 47.415 249.767 45.9433C248.152 45.3378 246.507 44.8139 244.84 44.3733Z" fill="#263238"/>
<g opacity="0.3">
<path d="M275.113 46.6666C275.113 46.6666 266.073 41.8266 261.08 42.4133L261.667 42.3333L257 42.72C256.21 42.7866 255.307 42.81 254.767 42.2333C254.767 42.2333 257.597 41.0333 262.067 41.0566C266.537 41.08 273.097 42.6666 275.113 46.6666Z" fill="black"/>
</g>
<path d="M275.233 46.7466C275.033 46.4449 274.81 46.1585 274.567 45.89C273.916 45.1465 273.179 44.4819 272.373 43.91C271.18 43.0551 269.867 42.3812 268.477 41.91C266.782 41.286 264.974 41.0347 263.173 41.1733C262.249 41.2664 261.332 41.4179 260.427 41.6266C259.553 41.8233 258.703 41.96 257.9 42.1933C257.164 42.4377 256.407 42.6183 255.64 42.7333C254.969 42.7997 254.291 42.7096 253.66 42.47C251.297 41.6933 250.02 40.71 250.18 40.6C250.189 40.6957 250.233 40.7849 250.303 40.85C250.495 41.0376 250.71 41.2 250.943 41.3333C251.792 41.8411 252.693 42.2557 253.63 42.57C254.275 42.8192 254.968 42.9173 255.657 42.8566C256.433 42.7482 257.198 42.5731 257.943 42.3333C258.73 42.1166 259.59 41.97 260.463 41.7733C261.363 41.573 262.273 41.4261 263.19 41.3333C264.969 41.1994 266.756 41.4437 268.433 42.05C269.813 42.5116 271.12 43.1683 272.313 44C273.119 44.5604 273.86 45.2076 274.523 45.93C274.76 46.1866 274.937 46.3933 275.05 46.5366C275.163 46.68 275.233 46.7466 275.233 46.7466Z" fill="#263238"/>
<g opacity="0.3">
<path d="M276.713 55.6267C275 55.0233 273.853 54.1333 272.277 53.1733C270.61 52.1533 268.907 51.22 267.277 50.12C266.04 49.2867 264.543 48.4067 263.993 47.12C263.811 47.4321 263.712 47.7862 263.707 48.1477C263.702 48.5093 263.79 48.866 263.963 49.1833C264.313 49.85 265.797 51.04 266.43 51.47C270.033 53.92 272.537 55.5933 276.563 57.2967C276.649 56.745 276.698 56.1882 276.71 55.63" fill="black"/>
</g>
<path d="M276.8 51.76C277.727 52.6033 278.283 53.15 277.997 54.0933C277.76 54.8733 277.28 55.76 276.473 55.6367C276.235 55.5812 276.009 55.4818 275.807 55.3433L264.767 48.88C264.367 48.7049 264.043 48.3928 263.853 48C263.633 47.3733 264.187 46.6867 264.823 46.5133C265.46 46.34 266.14 46.5133 266.773 46.7333C270.367 47.8967 273.643 49.6833 276.8 51.7567" fill="#57D163"/>
<path d="M263.973 48.24C263.872 48.0473 263.823 47.831 263.833 47.6133C263.858 47.3196 263.965 47.0388 264.142 46.803C264.319 46.5672 264.558 46.386 264.833 46.28C265.54 46.04 266.477 46.2 267.397 46.5733C268.317 46.9467 269.353 47.37 270.397 47.8533C272.209 48.6571 273.946 49.6209 275.587 50.7333C276.213 51.1633 276.697 51.5433 277.033 51.8067L277.413 52.1167C277.456 52.1549 277.503 52.1884 277.553 52.2167C277.553 52.2167 277.517 52.17 277.433 52.0933L277.07 51.76C276.737 51.4833 276.273 51.0933 275.65 50.6433C274.02 49.4995 272.282 48.5182 270.46 47.7133C269.4 47.2267 268.377 46.8067 267.437 46.4367C266.497 46.0667 265.533 45.9067 264.77 46.1767C264.481 46.2921 264.231 46.4882 264.05 46.7418C263.869 46.9953 263.765 47.2956 263.75 47.6067C263.746 47.7737 263.781 47.9394 263.853 48.09C263.884 48.1466 263.925 48.1974 263.973 48.24V48.24Z" fill="#263238"/>
<path d="M248.507 41.7867L256.01 44.19L254.66 46.0733L246.617 43.12L248.507 41.7867Z" fill="white"/>
<path d="M257.507 52.27C257.523 52.23 254.367 50.6033 250.45 48.6633C246.533 46.7233 243.333 45.1533 243.333 45.1933C243.333 45.2333 246.473 46.86 250.39 48.8C254.307 50.74 257.487 52.3066 257.507 52.27Z" fill="#263238"/>
<path d="M259.397 92.71L259.497 87.7833L242.637 94.0467C242.637 94.0467 239.52 83.9233 239.52 83.4467L235.783 85.78L229.573 83.1133L223.363 80.0467L210.803 102.047L197.627 140.893L228.667 161.6L251.687 136.933L265.687 115.6L273.38 102.093L259.397 92.71Z" fill="#57D163"/>
<path d="M241.137 93.9733C241.117 93.8097 241.109 93.6448 241.113 93.48C241.113 93.1466 241.113 92.6733 241.093 92.1L241.17 92.1466C239.317 93.0515 237.607 94.2228 236.093 95.6233L235.96 95.75V95.5666C235.96 95.3466 235.933 95.1133 235.92 94.8766C235.783 92.46 235.67 90.2733 235.587 88.6866C235.553 87.9133 235.527 87.28 235.507 86.81C235.507 86.6055 235.507 86.4355 235.507 86.3C235.485 86.2958 235.465 86.2836 235.451 86.2657C235.438 86.2478 235.432 86.2255 235.434 86.2032C235.436 86.1808 235.446 86.1601 235.463 86.145C235.479 86.1299 235.501 86.1215 235.523 86.1215C235.546 86.1215 235.567 86.1299 235.584 86.145C235.601 86.1601 235.611 86.1808 235.613 86.2032C235.615 86.2255 235.609 86.2478 235.595 86.2657C235.582 86.2836 235.562 86.2958 235.54 86.3C235.54 86.4333 235.567 86.6033 235.587 86.8066C235.62 87.2766 235.663 87.91 235.717 88.68C235.823 90.2633 235.953 92.45 236.09 94.8666C236.09 95.1033 236.117 95.3366 236.127 95.5566L235.983 95.4966C237.509 94.0864 239.245 92.9235 241.13 92.05L241.21 92.0166V92.1C241.21 92.6733 241.187 93.1366 241.18 93.48C241.178 93.6453 241.163 93.8102 241.137 93.9733Z" fill="#263238"/>
<path d="M257.843 92.9467C257.783 92.9885 257.718 93.0232 257.65 93.05L257.087 93.32L255 94.2767L248.08 97.37L244.793 98.8233L244.653 98.8833L244.68 98.7333C244.951 97.1705 245.079 95.5861 245.06 94L245.137 94.0467L243.58 94.8033L243.163 94.9967C243.07 95.04 243.02 95.06 243.017 95.0533C243.058 95.0201 243.102 94.9921 243.15 94.97L243.553 94.75L245.09 93.95L245.163 93.91V94C245.21 95.5993 245.099 97.1994 244.83 98.7767L244.717 98.6867L248 97.2267L254.94 94.1767L257.053 93.27L257.63 93.0333C257.697 92.9958 257.769 92.9667 257.843 92.9467V92.9467Z" fill="#263238"/>
<path d="M228.367 68.2933H101.4C98.7177 68.2933 96.5433 70.4677 96.5433 73.15V161.063C96.5433 163.746 98.7177 165.92 101.4 165.92H228.367C231.049 165.92 233.223 163.746 233.223 161.063V73.15C233.223 70.4677 231.049 68.2933 228.367 68.2933Z" fill="#455A64"/>
<path d="M91.2 159.613H239.283V162.223C239.283 163.797 238.658 165.306 237.546 166.419C236.433 167.532 234.924 168.157 233.35 168.157H97.1333C95.5597 168.157 94.0506 167.532 92.9378 166.419C91.8251 165.306 91.2 163.797 91.2 162.223V159.613V159.613Z" fill="#455A64"/>
<path d="M229.173 72.1733H100.213V154.617H229.173V72.1733Z" fill="#263238"/>
<path d="M151.41 158.7L153.247 161.857H179.103L180.81 158.7H151.41Z" fill="#263238"/>
<path d="M225.69 74.9633H103.957C103.355 74.9633 102.867 75.4513 102.867 76.0533V153.26C102.867 153.862 103.355 154.35 103.957 154.35H225.69C226.292 154.35 226.78 153.862 226.78 153.26V76.0533C226.78 75.4513 226.292 74.9633 225.69 74.9633Z" fill="#EBEBEB"/>
<path d="M226.65 154.467H102.737L102.867 80.8967H226.65V154.467Z" fill="#FAFAFA"/>
<path d="M113.28 78.03C113.27 78.2293 113.202 78.4214 113.084 78.5824C112.966 78.7434 112.804 78.8664 112.617 78.936C112.43 79.0055 112.227 79.0188 112.032 78.9739C111.838 78.9291 111.661 78.8282 111.523 78.6838C111.385 78.5393 111.293 78.3577 111.257 78.1613C111.222 77.9649 111.245 77.7625 111.323 77.579C111.402 77.3955 111.532 77.239 111.699 77.129C111.865 77.019 112.06 76.9602 112.26 76.96C112.537 76.967 112.8 77.0835 112.991 77.2841C113.182 77.4847 113.286 77.7529 113.28 78.03V78.03Z" fill="#263238"/>
<path d="M107.093 78.03C107.084 78.2293 107.016 78.4214 106.898 78.5824C106.78 78.7434 106.617 78.8664 106.43 78.936C106.243 79.0055 106.04 79.0188 105.845 78.9739C105.651 78.9291 105.474 78.8282 105.336 78.6838C105.199 78.5393 105.106 78.3577 105.071 78.1613C105.035 77.9649 105.058 77.7625 105.137 77.579C105.215 77.3955 105.346 77.239 105.512 77.129C105.679 77.019 105.874 76.9602 106.073 76.96C106.35 76.967 106.613 77.0835 106.805 77.2841C106.996 77.4847 107.1 77.7529 107.093 78.03V78.03Z" fill="#263238"/>
<path d="M110.273 78.03C110.264 78.2293 110.196 78.4214 110.078 78.5824C109.96 78.7434 109.797 78.8664 109.61 78.936C109.423 79.0055 109.22 79.0188 109.025 78.9739C108.831 78.9291 108.654 78.8282 108.516 78.6838C108.379 78.5393 108.286 78.3577 108.251 78.1613C108.215 77.9649 108.238 77.7625 108.317 77.579C108.395 77.3955 108.526 77.239 108.692 77.129C108.859 77.019 109.054 76.9602 109.253 76.96C109.53 76.967 109.793 77.0835 109.985 77.2841C110.176 77.4847 110.28 77.7529 110.273 78.03V78.03Z" fill="#263238"/>
<path d="M232.05 158.7C232.05 158.753 201.717 158.793 164.3 158.793C126.883 158.793 96.5433 158.753 96.5433 158.7C96.5433 158.647 126.877 158.603 164.3 158.603C201.723 158.603 232.05 158.647 232.05 158.7Z" fill="#263238"/>
<path d="M151.513 95C153.528 93.7839 155.696 92.8422 157.96 92.2L159.293 85.8166L170.073 85.6266L171.627 91.96C173.911 92.5241 176.11 93.3894 178.167 94.5333L183.617 90.9633L191.373 98.4533L188 104.03C189.217 106.046 190.158 108.215 190.8 110.48L197.18 111.813L197.37 122.593L191.037 124.147C190.471 126.425 189.605 128.617 188.46 130.667L192.033 136.117L184.543 143.873L178.973 140.497C176.958 141.713 174.789 142.655 172.523 143.297L171.19 149.68L160.407 149.867L158.857 143.533C156.578 142.975 154.384 142.115 152.333 140.977L146.883 144.55L139.127 137.06L142.503 131.49C141.286 129.475 140.343 127.305 139.7 125.04L133.32 123.707L133.13 112.927L139.463 111.373C140.027 109.089 140.892 106.889 142.037 104.833L138.467 99.3833L145.957 91.6266L151.513 95ZM157.26 109.363C155.671 111.009 154.606 113.089 154.199 115.34C153.793 117.591 154.062 119.913 154.975 122.01C155.887 124.108 157.401 125.888 159.325 127.125C161.249 128.363 163.497 129.002 165.784 128.962C168.072 128.922 170.296 128.204 172.175 126.9C174.055 125.596 175.505 123.764 176.344 121.636C177.182 119.507 177.37 117.178 176.885 114.943C176.4 112.707 175.262 110.666 173.617 109.077C172.523 108.022 171.233 107.193 169.819 106.637C168.405 106.081 166.896 105.809 165.377 105.837C163.858 105.864 162.359 106.191 160.967 106.798C159.574 107.405 158.314 108.28 157.26 109.373V109.363Z" fill="#E0E0E0"/>
<path d="M194.583 99.1233C194.731 98.3259 194.983 97.5515 195.333 96.82L194 95.02L196.413 92.1933L198.413 93.24C199.08 92.7803 199.806 92.4115 200.57 92.1433L200.903 89.92L204.607 89.63L205.273 91.7733C206.071 91.9206 206.846 92.174 207.577 92.5266L209.377 91.1933L212.203 93.61L211.157 95.61C211.618 96.2777 211.988 97.0041 212.257 97.77L214.477 98.1033L214.767 101.81L212.623 102.477C212.477 103.275 212.224 104.05 211.87 104.78L213.203 106.583L210.79 109.407L208.79 108.36C208.122 108.821 207.396 109.191 206.63 109.46L206.297 111.683L202.593 111.973L201.927 109.827C201.129 109.68 200.354 109.428 199.623 109.077L197.82 110.41L195 107.967L196.047 105.967C195.586 105.299 195.216 104.572 194.947 103.807L192.727 103.473L192.437 99.7666L194.58 99.1L194.583 99.1233ZM199.607 100.247C199.528 101.08 199.712 101.918 200.134 102.641C200.556 103.364 201.195 103.937 201.959 104.278C202.724 104.619 203.577 104.711 204.397 104.542C205.217 104.373 205.963 103.951 206.531 103.335C207.098 102.719 207.458 101.941 207.559 101.11C207.661 100.278 207.499 99.4363 207.096 98.702C206.694 97.9677 206.071 97.3782 205.316 97.0167C204.561 96.6551 203.711 96.5397 202.887 96.6866C202.026 96.8401 201.239 97.2712 200.647 97.9142C200.055 98.5571 199.689 99.3764 199.607 100.247V100.247Z" fill="#E0E0E0"/>
<path d="M113.407 136.333C113.434 135.376 113.589 134.426 113.87 133.51L111.98 131.667L114.293 127.94L116.8 128.807C117.5 128.15 118.285 127.589 119.133 127.14L119.113 124.49L123.387 123.49L124.543 125.873C125.501 125.9 126.451 126.056 127.367 126.337L129.23 124.447L132.957 126.76L132.09 129.267C132.747 129.967 133.308 130.751 133.757 131.6L136.407 131.58L137.407 135.85L135.02 137C134.99 137.958 134.833 138.907 134.553 139.823L136.443 141.683L134.13 145.413L131.623 144.547C130.924 145.204 130.139 145.765 129.29 146.213L129.31 148.863L125.04 149.863L123.88 147.48C122.925 147.447 121.979 147.285 121.067 147L119.207 148.89L115.477 146.577L116.343 144.07C115.686 143.37 115.126 142.585 114.677 141.737L112.01 141.757L111.01 137.487L113.393 136.327L113.407 136.333ZM119.583 137.533C119.797 138.439 120.275 139.26 120.956 139.894C121.637 140.528 122.49 140.946 123.408 141.096C124.327 141.245 125.269 141.119 126.115 140.733C126.962 140.347 127.675 139.719 128.165 138.928C128.655 138.138 128.899 137.219 128.868 136.289C128.836 135.36 128.529 134.46 127.987 133.704C127.444 132.949 126.689 132.371 125.819 132.044C124.948 131.717 123.999 131.655 123.093 131.867C122.489 132.007 121.919 132.266 121.415 132.628C120.912 132.99 120.484 133.448 120.158 133.975C119.832 134.503 119.613 135.09 119.515 135.702C119.416 136.314 119.439 136.94 119.583 137.543V137.533Z" fill="#E0E0E0"/>
<path d="M121.077 100.727C121.186 100.125 121.376 99.5404 121.643 98.99L120.643 97.63L122.463 95.5L123.963 96.29C124.467 95.9428 125.014 95.6637 125.59 95.46L125.837 93.7933L128.63 93.5733L129.13 95.19C129.731 95.3019 130.315 95.4925 130.867 95.7567L132.227 94.7567L134.353 96.5766L133.567 98.0766C133.914 98.5792 134.192 99.1264 134.393 99.7033L136.06 99.9466L136.28 102.74L134.667 103.227C134.556 103.828 134.367 104.412 134.103 104.963L135.103 106.32L133.283 108.45L131.783 107.66C131.281 108.009 130.734 108.288 130.157 108.49L129.913 110.157L127.12 110.373L126.617 108.757C126.015 108.647 125.431 108.457 124.88 108.19L123.523 109.19L121.393 107.37L122.18 105.87C121.833 105.367 121.555 104.82 121.353 104.243L119.687 103.997L119.47 101.203L121.087 100.703L121.077 100.727ZM124.86 102.083C124.907 102.674 125.128 103.238 125.496 103.703C125.863 104.169 126.36 104.515 126.924 104.698C127.488 104.881 128.093 104.893 128.664 104.732C129.234 104.572 129.745 104.245 130.13 103.795C130.516 103.344 130.759 102.79 130.829 102.201C130.9 101.613 130.794 101.016 130.526 100.488C130.258 99.9588 129.839 99.5214 129.322 99.2305C128.806 98.9397 128.215 98.8084 127.623 98.8533C127.23 98.8832 126.846 98.9906 126.493 99.1693C126.141 99.3479 125.828 99.5944 125.571 99.8945C125.314 100.195 125.119 100.542 124.997 100.918C124.875 101.294 124.829 101.69 124.86 102.083V102.083Z" fill="#EBEBEB"/>
<path d="M194.723 130.81C194.82 130.293 194.983 129.791 195.21 129.317L194.34 128.15L195.903 126.32L197.193 126.987C197.625 126.687 198.095 126.448 198.59 126.273L198.8 124.833L201.2 124.647L201.63 126.037C202.147 126.131 202.649 126.295 203.123 126.523L204.29 125.653L206.12 127.217L205.453 128.503C205.752 128.936 205.992 129.407 206.167 129.903L207.607 130.113L207.793 132.513L206.403 132.943C206.308 133.461 206.145 133.963 205.917 134.437L206.787 135.603L205.223 137.43L203.937 136.763C203.503 137.061 203.032 137.301 202.537 137.477L202.327 138.913L199.927 139.1L199.497 137.713C198.98 137.617 198.478 137.453 198.003 137.227L196.837 138.097L195 136.533L195.667 135.247C195.368 134.815 195.128 134.345 194.953 133.85L193.517 133.64L193.327 131.24L194.717 130.81H194.723ZM197.973 131.973C198.013 132.483 198.203 132.97 198.519 133.372C198.836 133.774 199.265 134.073 199.751 134.231C200.238 134.389 200.76 134.399 201.253 134.26C201.745 134.121 202.185 133.838 202.516 133.448C202.848 133.059 203.056 132.579 203.115 132.071C203.174 131.563 203.081 131.049 202.847 130.594C202.613 130.139 202.249 129.763 201.802 129.515C201.354 129.267 200.843 129.157 200.333 129.2C199.653 129.256 199.023 129.579 198.581 130.099C198.138 130.619 197.92 131.293 197.973 131.973Z" fill="#EBEBEB"/>
<path d="M165.243 134.427H148.667C147.692 134.424 146.736 134.166 145.892 133.678C145.049 133.19 144.349 132.489 143.861 131.646C143.373 130.802 143.116 129.845 143.114 128.871C143.112 127.897 143.366 126.939 143.85 126.093L152.143 111.73L160.433 97.3666C160.922 96.5216 161.625 95.82 162.471 95.3322C163.316 94.8445 164.275 94.5877 165.252 94.5877C166.228 94.5877 167.187 94.8445 168.033 95.3322C168.879 95.82 169.581 96.5216 170.07 97.3666L178.363 111.73L186.657 126.093C187.141 126.939 187.395 127.897 187.393 128.872C187.391 129.846 187.133 130.803 186.645 131.647C186.157 132.491 185.456 133.192 184.612 133.679C183.768 134.167 182.811 134.425 181.837 134.427H165.243Z" fill="#57D163"/>
<path d="M183.097 127.74C183.097 127.74 183.14 127.823 183.223 127.997C183.366 128.344 183.42 128.721 183.382 129.094C183.343 129.468 183.213 129.826 183.003 130.137C182.838 130.382 182.627 130.593 182.38 130.757C182.093 130.939 181.766 131.047 181.427 131.07C178.6 131.1 174.52 131.093 169.473 131.107L151.747 131.127H149.213C148.761 131.122 148.322 130.977 147.956 130.712C147.59 130.447 147.316 130.074 147.17 129.647C147.015 129.219 146.987 128.757 147.087 128.313C147.113 128.203 147.15 128.093 147.187 127.98C147.223 127.867 147.283 127.77 147.333 127.67L147.667 127.087C148.093 126.303 148.527 125.517 148.96 124.72L154.333 114.857L159.74 105C160.609 103.407 161.464 101.843 162.307 100.31C162.52 99.93 162.717 99.5466 162.943 99.17C163.169 98.7852 163.49 98.4658 163.877 98.2433C164.255 98.0264 164.68 97.903 165.116 97.8833C165.552 97.8636 165.987 97.9481 166.383 98.13C166.777 98.3081 167.12 98.5806 167.383 98.9233C167.611 99.2691 167.817 99.6287 168 100C168.39 100.713 168.777 101.417 169.153 102.11C169.913 103.497 170.648 104.842 171.357 106.147C172.78 108.75 174.103 111.177 175.31 113.39C177.723 117.82 179.673 121.407 181.023 123.89L182.57 126.747C182.743 127.08 182.877 127.32 182.967 127.493C183.057 127.667 183.1 127.75 183.1 127.75C183.1 127.75 183.047 127.667 182.953 127.5L182.54 126.763L180.963 123.92C179.603 121.443 177.63 117.87 175.203 113.45L171.233 106.213L169.02 102.183C168.64 101.49 168.257 100.787 167.863 100.073C167.68 99.7132 167.476 99.3638 167.253 99.0266C167.007 98.7066 166.687 98.4514 166.32 98.2833C165.947 98.1119 165.538 98.0321 165.127 98.0507C164.717 98.0692 164.316 98.1855 163.96 98.39C163.599 98.6013 163.298 98.902 163.087 99.2633C162.867 99.6266 162.667 100.017 162.457 100.397L159.89 105.087C158.15 108.273 156.343 111.57 154.497 114.95L149.1 124.807C148.663 125.603 148.233 126.393 147.803 127.173C147.569 127.541 147.384 127.938 147.253 128.353C147.158 128.769 147.185 129.203 147.33 129.603C147.462 130 147.715 130.346 148.053 130.592C148.391 130.837 148.798 130.971 149.217 130.973H151.75L169.477 130.99L181.427 131.007C181.754 130.988 182.072 130.887 182.35 130.713C182.593 130.556 182.802 130.352 182.967 130.113C183.223 129.736 183.36 129.29 183.36 128.833C183.356 128.454 183.266 128.08 183.097 127.74Z" fill="#263238"/>
<path d="M162.557 124.667C162.557 123.197 163.73 122.1 165.4 122.1C167.07 122.1 168.217 123.197 168.217 124.667C168.217 126.137 167.07 127.283 165.4 127.283C163.73 127.283 162.557 126.117 162.557 124.667ZM162.583 109.61H168.217L167.27 120.703H163.507L162.583 109.61Z" fill="white"/>
<path d="M166.037 95.7066C165.696 95.5914 165.342 95.5176 164.983 95.4866C164.112 95.4679 163.261 95.7531 162.577 96.2933C161.909 96.8503 161.371 97.5465 161 98.3333C160.697 98.9333 160.553 99.3333 160.527 99.3166C160.536 99.2181 160.559 99.1215 160.597 99.03C160.68 98.7746 160.778 98.5241 160.89 98.28C161.242 97.4542 161.788 96.7249 162.48 96.1533C163.193 95.5873 164.092 95.3069 165 95.3666C165.272 95.387 165.539 95.4523 165.79 95.56C165.953 95.6366 166.043 95.6966 166.037 95.7066Z" fill="white"/>
<path d="M159.103 101.8C159.172 101.512 159.295 101.241 159.467 101C159.71 100.59 159.94 100.277 159.983 100.3C159.913 100.583 159.788 100.851 159.617 101.087C159.493 101.355 159.319 101.597 159.103 101.8Z" fill="white"/>
<g opacity="0.3">
<path d="M173.563 103.42L147.733 119.333L144.38 125.147L175.387 106.577L173.563 103.42Z" fill="white"/>
</g>
<g opacity="0.3">
<path d="M177.63 110.473L143.393 130.667C143.531 131.196 143.785 131.688 144.137 132.107L178.233 111.52L177.63 110.473Z" fill="white"/>
</g>
<path d="M262.24 148.133C260.938 146.699 259.252 145.67 257.381 145.168C255.51 144.667 253.534 144.715 251.69 145.307L248.5 141.807L248.057 141.31L222.813 113.613C223.523 111.969 223.782 110.166 223.564 108.389C223.345 106.612 222.658 104.925 221.572 103.501C220.486 102.078 219.04 100.969 217.384 100.289C215.727 99.6096 213.92 99.3832 212.147 99.6333L210.913 100.123L215.203 103L214.973 107.683L211.503 110.833L206.82 110.603L203.76 107.23L202.497 107.727C202.133 110.55 204.027 114.11 206.09 116.393C207.389 117.826 209.073 118.854 210.941 119.356C212.809 119.858 214.781 119.812 216.623 119.223L242.29 147.383L243.077 148.26L245.51 150.927C244.749 152.701 244.514 154.656 244.832 156.56C245.151 158.464 246.01 160.237 247.307 161.667C249.36 163.933 252.087 165.447 254.923 165.37L256.19 164.877L253.127 161.5L253.357 156.833L256.827 153.683L261.493 153.91L263.287 157.78L264.553 157.283C264.944 155.685 264.937 154.016 264.534 152.421C264.131 150.826 263.343 149.354 262.24 148.133Z" fill="#E0E0E0"/>
<g opacity="0.3">
<path d="M262.24 148.133C260.938 146.699 259.252 145.67 257.381 145.168C255.51 144.667 253.534 144.715 251.69 145.307L248.5 141.807L248.057 141.31L222.813 113.613C223.523 111.969 223.782 110.166 223.564 108.389C223.345 106.612 222.658 104.925 221.572 103.501C220.486 102.078 219.04 100.969 217.384 100.289C215.727 99.6096 213.92 99.3832 212.147 99.6333L210.913 100.123L215.203 103L214.973 107.683L211.503 110.833L206.82 110.603L203.76 107.23L202.497 107.727C202.133 110.55 204.027 114.11 206.09 116.393C207.389 117.826 209.073 118.854 210.941 119.356C212.809 119.858 214.781 119.812 216.623 119.223L242.29 147.383L243.077 148.26L245.51 150.927C244.749 152.701 244.514 154.656 244.832 156.56C245.151 158.464 246.01 160.237 247.307 161.667C249.36 163.933 252.087 165.447 254.923 165.37L256.19 164.877L253.127 161.5L253.357 156.833L256.827 153.683L261.493 153.91L263.287 157.78L264.553 157.283C264.944 155.685 264.937 154.016 264.534 152.421C264.131 150.826 263.343 149.354 262.24 148.133Z" fill="black"/>
</g>
<path d="M260.973 148.627C259.672 147.192 257.986 146.164 256.115 145.663C254.245 145.162 252.27 145.211 250.427 145.803L247.233 142.3L246.79 141.803L221.547 114.107C222.256 112.463 222.516 110.66 222.298 108.883C222.079 107.105 221.392 105.418 220.306 103.995C219.219 102.572 217.774 101.464 216.117 100.784C214.46 100.105 212.653 99.8791 210.88 100.13L213.94 103.503L213.713 108.17L210.237 111.333L205.57 111.107L202.51 107.733C202.087 109.472 202.135 111.293 202.648 113.007C203.162 114.722 204.123 116.268 205.432 117.488C206.742 118.708 208.353 119.558 210.099 119.949C211.846 120.34 213.665 120.258 215.37 119.713L241.037 147.873L241.827 148.75L244.26 151.417C243.553 153.06 243.297 154.861 243.516 156.636C243.736 158.412 244.424 160.096 245.51 161.518C246.596 162.939 248.04 164.046 249.695 164.725C251.35 165.403 253.155 165.63 254.927 165.38L251.863 162L252.09 157.333L255.563 154.183L260.23 154.413L263.29 157.787C263.683 156.187 263.677 154.515 263.273 152.918C262.87 151.321 262.08 149.847 260.973 148.627V148.627Z" fill="#E0E0E0"/>
<path d="M260.973 148.627C260.973 148.627 261.12 148.787 261.397 149.11C261.791 149.602 262.14 150.129 262.44 150.683C263.599 152.861 263.919 155.388 263.34 157.787V157.853L263.293 157.803L260.23 154.433L260.257 154.45L255.59 154.227H255.623L252.157 157.38V157.343C252.09 158.797 252.013 160.38 251.933 162.027V161.983L254.97 165.333L255.05 165.42L254.933 165.437C253.243 165.682 251.518 165.496 249.919 164.895C248.321 164.294 246.9 163.298 245.79 162C244.582 160.597 243.786 158.887 243.49 157.06C243.175 155.144 243.414 153.179 244.177 151.393V151.473L215.28 119.777L215.37 119.8C213.544 120.377 211.593 120.432 209.737 119.96C207.151 119.291 204.933 117.632 203.561 115.341C202.189 113.05 201.773 110.312 202.403 107.717L202.443 107.557L202.553 107.677L205.613 111.05L205.553 111.023L210.237 111.25L210.173 111.273L213.667 108.12L213.637 108.18C213.713 106.6 213.79 105.043 213.867 103.497L213.887 103.557L210.827 100.183L210.723 100.067L210.877 100.047C212.72 99.7861 214.6 100.037 216.31 100.772C218.021 101.507 219.497 102.697 220.577 104.213C221.61 105.66 222.244 107.354 222.413 109.123C222.571 110.829 222.302 112.547 221.63 114.123V114.043L250.48 145.763H250.44C251.813 145.325 253.264 145.185 254.696 145.354C256.127 145.522 257.506 145.995 258.74 146.74C259.367 147.123 259.952 147.57 260.487 148.073C260.82 148.43 261 148.613 261 148.613L260.473 148.087C259.934 147.585 259.347 147.139 258.72 146.753C257.489 146.02 256.117 145.556 254.693 145.394C253.269 145.232 251.827 145.375 250.463 145.813H250.44V145.793L221.537 114.127L221.503 114.09L221.523 114.047C222.184 112.489 222.448 110.791 222.29 109.107C222.123 107.364 221.498 105.696 220.477 104.273C219.413 102.782 217.961 101.61 216.277 100.888C214.594 100.166 212.744 99.9195 210.93 100.177L210.98 100.04L214 103.447L214.023 103.47V103.507C213.95 105.049 213.874 106.604 213.797 108.173V108.21L213.77 108.233L210.3 111.383L210.273 111.407H210.237L205.57 111.177H205.533L205.51 111.15L202.447 107.777L202.597 107.74C202.178 109.463 202.225 111.267 202.734 112.966C203.242 114.665 204.193 116.198 205.489 117.409C206.785 118.619 208.38 119.463 210.11 119.854C211.84 120.245 213.643 120.169 215.333 119.633H215.383L215.423 119.673C225.917 131.2 235.757 141.99 244.3 151.383L244.333 151.42L244.313 151.467C243.563 153.222 243.326 155.155 243.63 157.04C243.922 158.795 244.675 160.442 245.811 161.811C246.947 163.181 248.426 164.225 250.097 164.837C251.638 165.394 253.293 165.566 254.917 165.337L254.877 165.44L251.82 162.067L251.803 162.047V162C251.883 160.357 251.96 158.773 252.033 157.333V157.31V157.293L255.51 154.15H255.53L260.197 154.383C261.317 155.623 262.347 156.76 263.25 157.763H263.19C263.773 155.38 263.466 152.866 262.327 150.693C262.031 150.139 261.689 149.61 261.303 149.113C261.11 148.797 260.973 148.627 260.973 148.627Z" fill="#263238"/>
<path d="M220.397 115.723C220.373 115.812 220.336 115.896 220.287 115.973C220.17 116.19 220.04 116.399 219.897 116.6C218.952 117.944 217.619 118.969 216.077 119.537C215.846 119.623 215.61 119.695 215.37 119.75C215.284 119.779 215.194 119.793 215.103 119.793C215.103 119.763 215.467 119.663 216.033 119.423C217.52 118.805 218.819 117.807 219.8 116.53C220.177 116.04 220.37 115.71 220.397 115.723Z" fill="#263238"/>
<path d="M248.587 127.753L239 123.287L230.43 122.217L233.577 124.883C233.577 124.883 222.497 128.747 222.303 129.617C222.11 130.487 223.177 132.827 225.13 132.393C225.13 132.393 224.033 133.727 224.49 135.197C224.947 136.667 225.957 136.943 227.823 136.6C227.823 136.6 226.557 138.497 227.55 139.463C228.543 140.43 230.09 140.187 230.09 140.187C230.09 140.187 230.11 142.497 231.33 142.697C232.55 142.897 235.95 142.66 237.22 142.27L243.67 140.27L247.85 139.333L248.587 127.753Z" fill="#FFBF9D"/>
<path d="M230.94 130.687C230.977 130.813 229.7 131.293 228.093 131.763C226.487 132.233 225.147 132.507 225.11 132.38C225.073 132.253 226.35 131.77 227.957 131.303C229.563 130.837 230.903 130.56 230.94 130.687Z" fill="#FF9A6C"/>
<path d="M232.57 135.243C232.607 135.37 231.597 135.787 230.31 136.177C229.023 136.567 227.947 136.773 227.907 136.647C227.867 136.52 228.883 136.103 230.17 135.717C231.457 135.33 232.533 135.12 232.57 135.243Z" fill="#FF9A6C"/>
<path d="M234.033 139.033C234.057 139.177 233.137 139.367 232.057 139.64C230.977 139.913 230.133 140.307 230.057 140.17C229.98 140.033 230.773 139.483 231.923 139.17C233.073 138.857 234.017 138.917 234.033 139.033Z" fill="#FF9A6C"/>
<path d="M235.243 124.5C235.28 124.63 234.023 125.087 232.467 125.623C230.91 126.16 229.64 126.57 229.587 126.447C229.533 126.323 230.74 125.71 232.313 125.17C233.887 124.63 235.21 124.373 235.243 124.5Z" fill="#FF9A6C"/>
<path d="M246.78 126.913L267.543 134.433L266.33 148.683L243.47 139.467L246.78 126.913Z" fill="#FFBF9D"/>
<path d="M273.42 101.977C273.42 101.977 276.127 104.773 277.703 109.803C279.28 114.833 286.703 136.157 286.523 142.94C286.327 149.957 281.603 154.963 271.223 152.19C265.03 150.523 257.65 147.857 257.65 147.857L262.897 130.61L267 131.667L260.373 119.227L273.42 101.977Z" fill="#57D163"/>
<path d="M268.667 110.127C268.707 110.157 265.833 114.247 262.253 119.263C258.673 124.28 255.743 128.333 255.703 128.3C255.663 128.267 258.537 124.18 262.117 119.163C265.697 114.147 268.63 110.1 268.667 110.127Z" fill="#263238"/>
<path d="M276.613 134C276.613 134 276.433 133.913 276.11 133.763C275.65 133.558 275.174 133.39 274.687 133.26C274.07 133.09 273.323 132.927 272.493 132.75L269.8 132.157C267.89 131.73 266.16 131.333 264.913 131.037L263.437 130.677C263.254 130.642 263.074 130.59 262.9 130.523C263.085 130.539 263.269 130.569 263.45 130.613L264.94 130.917C266.197 131.183 267.94 131.56 269.84 131.987L272.53 132.597C273.357 132.783 274.103 132.957 274.72 133.143C275.21 133.285 275.685 133.473 276.14 133.703C276.263 133.766 276.382 133.836 276.497 133.913C276.539 133.937 276.578 133.966 276.613 134V134Z" fill="#263238"/>
<g opacity="0.3">
<path d="M281.92 134.76C281.854 134.351 281.689 133.963 281.441 133.631C281.192 133.299 280.867 133.032 280.493 132.853C279.743 132.498 278.934 132.282 278.107 132.213C274.377 131.7 270.603 131.547 266.84 131.417L267.173 131.567C271.823 132.426 276.374 133.753 280.757 135.527C280.997 135.66 281.279 135.693 281.543 135.62C281.686 135.532 281.799 135.403 281.866 135.249C281.934 135.095 281.952 134.925 281.92 134.76V134.76Z" fill="black"/>
</g>
<g opacity="0.3">
<path d="M196.38 68.64C192.88 68.0433 188.693 69.06 185.193 68.4633C184.673 68.3767 184.1 68.2933 183.64 68.56C183.087 68.8767 182.897 69.5833 182.87 70.2267C182.856 71.1093 183.027 71.9852 183.371 72.798C183.716 73.6109 184.226 74.3427 184.87 74.9467C186.181 76.1449 187.818 76.9269 189.573 77.1933C190.97 77.43 192.473 77.3833 193.717 76.71C195.903 75.5233 196.953 71.0433 196.38 68.64Z" fill="black"/>
</g>
<path d="M182.797 75.0433C182.797 75.0433 180.673 72.5533 180.367 71.4067C180.163 70.6467 180.263 68.5167 180.367 67.1667C180.39 66.7117 180.546 66.2736 180.816 65.9064C181.085 65.5391 181.456 65.2588 181.883 65.1C182.008 65.0379 182.148 65.0111 182.287 65.0222C182.426 65.0334 182.56 65.0821 182.673 65.1633C182.962 64.7723 183.285 64.4085 183.64 64.0767C184.473 63.2233 184.87 62.6467 186.703 63.1767C186.703 63.1767 188.053 61.7533 188.83 61.86C189.351 61.9371 189.867 62.0484 190.373 62.1933C190.373 62.1933 193.33 62.0667 193.937 63.0067C194.281 63.431 194.746 63.7412 195.27 63.8967C195.732 64.0599 196.157 64.3142 196.52 64.6445C196.882 64.9749 197.175 65.3746 197.38 65.82C197.725 66.6381 197.925 67.51 197.97 68.3967L194.97 68.5167C194.97 68.5167 195.183 75.42 194.427 75.9767C193.67 76.5333 193.383 76.3333 193.383 76.3333C193.383 76.3333 192.807 77.9533 190.557 76.7567C190.557 76.7567 188.69 77.32 187.89 76.55C187.09 75.78 184.163 68.3833 184.163 68.3833L184.247 72.05C184.247 72.05 185.79 74.4267 185.033 74.9833C184.277 75.54 182.797 75.0433 182.797 75.0433Z" fill="#FFBF9D"/>
<path d="M186.543 65.6866C186.614 65.8251 186.671 65.9702 186.713 66.12L187.12 67.32C187.453 68.32 187.91 69.7466 188.397 71.3033C188.883 72.86 189.29 74.3033 189.75 75.25C189.927 75.6313 190.132 75.999 190.363 76.35C190.527 76.6 190.63 76.7266 190.62 76.7366C190.61 76.7466 190.583 76.7133 190.53 76.6533C190.452 76.5697 190.378 76.4818 190.31 76.39C190.054 76.0497 189.831 75.6858 189.643 75.3033C189.147 74.34 188.73 72.91 188.237 71.3566C187.743 69.8033 187.313 68.3833 187.007 67.3566C186.867 66.8666 186.747 66.46 186.653 66.14C186.603 65.9926 186.566 65.8408 186.543 65.6866V65.6866Z" fill="#FF9A6C"/>
<path d="M190.233 64.8333C190.3 64.9763 190.352 65.1261 190.387 65.28L190.743 66.5166C191.033 67.56 191.41 69.0066 191.85 70.6066C192.29 72.2066 192.647 73.66 192.907 74.7133C193.03 75.2133 193.13 75.6333 193.21 75.96C193.255 76.1122 193.284 76.2685 193.297 76.4266C193.234 76.2821 193.182 76.1328 193.143 75.98C193.05 75.6466 192.933 75.24 192.79 74.7433C192.497 73.7 192.103 72.2533 191.683 70.6533C191.263 69.0533 190.887 67.6 190.623 66.5466C190.503 66.0433 190.4 65.6266 190.323 65.2966C190.279 65.1454 190.249 64.9903 190.233 64.8333V64.8333Z" fill="#FF9A6C"/>
</svg>
